<svg width="500" height="500" viewBox="0 0 500 500" fill="none" xmlns="http://www.w3.org/2000/svg">
<path d="M254.06 484.94C377.7 484.94 477.93 423.603 477.93 347.94C477.93 272.277 377.7 210.94 254.06 210.94C130.42 210.94 30.19 272.277 30.19 347.94C30.19 423.603 130.42 484.94 254.06 484.94Z" fill="#F5F5F5"/>
<path d="M367.34 404.79C366.177 404.822 365.026 404.549 364 404L324.42 381.1C323.74 380.759 323.168 380.236 322.769 379.588C322.369 378.941 322.158 378.196 322.158 377.435C322.158 376.674 322.369 375.929 322.769 375.282C323.168 374.634 323.74 374.111 324.42 373.77L390 335.93C391.029 335.379 392.178 335.09 393.345 335.09C394.512 335.09 395.661 335.379 396.69 335.93L436.27 358.78C436.95 359.121 437.522 359.644 437.921 360.292C438.321 360.939 438.532 361.684 438.532 362.445C438.532 363.206 438.321 363.951 437.921 364.598C437.522 365.246 436.95 365.769 436.27 366.11L370.69 404C369.661 404.549 368.506 404.821 367.34 404.79Z" fill="#E0E0E0"/>
<path d="M284.16 454.89C279.168 454.907 274.191 454.34 269.33 453.2C264.778 452.156 260.379 450.533 256.24 448.37L256.15 448.32C255.35 447.87 254.33 447.26 253.01 446.44C251.69 445.62 250.51 444.85 249.21 444C247.91 443.15 246.67 442.32 245.53 441.53C244.39 440.74 243.42 440.06 242.74 439.53C239.56 437.137 236.956 434.061 235.12 430.53C233.305 426.965 232.742 422.894 233.52 418.97C234.47 414.763 236.544 410.892 239.52 407.77C242.6 404.32 246.92 401.15 252.72 398.08C258.578 394.903 264.782 392.41 271.21 390.65C276.685 389.154 282.325 388.345 288 388.24H288.5C293.416 388.213 298.314 388.849 303.06 390.13C307.526 391.365 311.842 393.089 315.93 395.27C317.497 396.143 319.187 397.173 321 398.36C322.84 399.56 324.38 400.64 325.7 401.66C327.912 403.175 329.688 405.244 330.85 407.66C331.753 409.654 332.061 411.865 331.74 414.03H332.18H332.46C334.255 414.005 336.009 414.563 337.46 415.62C338.39 416.264 339.119 417.157 339.563 418.198C340.008 419.238 340.148 420.383 339.97 421.5C339.692 423.231 339.284 424.94 338.75 426.61C337.944 428.993 336.71 431.209 335.11 433.15C333.155 435.53 330.931 437.674 328.48 439.54C320.213 445.706 310.83 450.212 300.85 452.81C295.505 454.128 290.025 454.822 284.52 454.88L284.16 454.89ZM280.65 421C280.83 421.13 281.03 421.27 281.26 421.41C282.814 422.479 284.6 423.164 286.47 423.41C286.79 423.41 287.1 423.46 287.39 423.46C288.118 423.467 288.842 423.349 289.53 423.11C289.37 422.99 289.19 422.87 288.99 422.74C287.414 421.654 285.612 420.94 283.72 420.65C283.415 420.61 283.108 420.59 282.8 420.59C282.065 420.6 281.337 420.739 280.65 421Z" fill="#E0E0E0"/>
<path d="M166.83 436.66L38.1 362.5C35.39 360.94 35.39 358.4 38.1 356.83L299.35 206.06C300.873 205.286 302.557 204.883 304.265 204.883C305.973 204.883 307.657 205.286 309.18 206.06L437.91 280.21C440.63 281.77 440.63 284.32 437.91 285.88L176.66 436.66C175.136 437.429 173.452 437.83 171.745 437.83C170.038 437.83 168.354 437.429 166.83 436.66Z" fill="#E0E0E0"/>
<path d="M46.62 357.77L166.3 426.86C168.192 427.953 170.331 428.547 172.515 428.588C174.7 428.628 176.859 428.113 178.79 427.09L419.74 288C423.54 285.81 426.61 280.9 426.62 277C426.63 273.1 423.54 268.24 419.74 266.05L300.5 197.23C298.371 196.15 296.017 195.588 293.63 195.588C291.243 195.588 288.889 196.15 286.76 197.23L46.62 335.87C42.82 338.07 39.74 342.97 39.74 346.82C39.74 350.67 42.82 355.58 46.62 357.77Z" fill="#37474F"/>
<path d="M166.3 426.86L46.62 357.77C42.82 355.58 39.74 350.68 39.74 346.82C39.74 342.96 42.82 338.07 46.62 335.87L172.81 263V428.57C170.526 428.596 168.277 428.006 166.3 426.86Z" fill="#263238"/>
<path d="M169.15 414.55C171.03 415.497 173.105 415.99 175.21 415.99C177.315 415.99 179.39 415.497 181.27 414.55L419.77 276.85C424.9 273.85 424.9 269.04 419.77 266.08L300.51 197.23C298.381 196.15 296.027 195.588 293.64 195.588C291.253 195.588 288.899 196.15 286.77 197.23L46.63 335.87C42.85 338.06 42.85 341.63 46.63 343.81L169.15 414.55Z" fill="#455A64"/>
<path d="M180.73 400.68C182.753 401.71 184.99 402.247 187.26 402.247C189.53 402.247 191.767 401.71 193.79 400.68L399 282.19C402.61 280.11 402.61 276.73 399 274.65L286.83 209.89C284.806 208.865 282.569 208.33 280.3 208.33C278.031 208.33 275.794 208.865 273.77 209.89L68.54 328.37C64.95 330.45 64.95 333.84 68.54 335.92L180.73 400.68Z" fill="#37474F"/>
<path d="M280.69 208.35C282.831 208.358 284.938 208.887 286.83 209.89L399 274.65C402.61 276.73 402.61 280.11 399 282.19L376.78 295L280.69 233.64V208.35Z" fill="#263238"/>
<path d="M273.69 214.79C275.714 213.765 277.951 213.23 280.22 213.23C282.489 213.23 284.726 213.765 286.75 214.79L398.94 279.55C399.58 279.911 400.158 280.374 400.65 280.92C400.177 281.426 399.627 281.855 399.02 282.19L193.79 400.68C191.767 401.71 189.53 402.247 187.26 402.247C184.99 402.247 182.753 401.71 180.73 400.68L68.54 335.92C67.9027 335.563 67.3285 335.103 66.84 334.56C67.3089 334.05 67.8557 333.618 68.46 333.28L273.69 214.79Z" fill="#FAFAFA"/>
<path d="M358 244.36L338.12 232.88C336.93 232.19 336.87 231.12 337.98 230.48C338.632 230.163 339.349 230.004 340.073 230.017C340.798 230.029 341.509 230.211 342.15 230.55L362 242C363.19 242.69 363.25 243.76 362.13 244.41C361.485 244.723 360.776 244.881 360.059 244.872C359.342 244.864 358.637 244.688 358 244.36Z" fill="#263238"/>
<path d="M323.87 224.68C323.626 224.597 323.415 224.441 323.265 224.232C323.115 224.023 323.035 223.772 323.035 223.515C323.035 223.258 323.115 223.007 323.265 222.798C323.415 222.589 323.626 222.432 323.87 222.35C324.491 222.039 325.176 221.878 325.87 221.878C326.564 221.878 327.249 222.039 327.87 222.35C328.114 222.432 328.325 222.589 328.475 222.798C328.625 223.007 328.705 223.258 328.705 223.515C328.705 223.772 328.625 224.023 328.475 224.232C328.325 224.441 328.114 224.597 327.87 224.68C327.249 224.991 326.564 225.152 325.87 225.152C325.176 225.152 324.491 224.991 323.87 224.68Z" fill="#263238"/>
<path d="M315.81 220C315.566 219.918 315.355 219.761 315.205 219.552C315.055 219.343 314.975 219.092 314.975 218.835C314.975 218.578 315.055 218.327 315.205 218.118C315.355 217.909 315.566 217.753 315.81 217.67C316.431 217.359 317.116 217.198 317.81 217.198C318.504 217.198 319.189 217.359 319.81 217.67C320.054 217.753 320.265 217.909 320.415 218.118C320.565 218.327 320.645 218.578 320.645 218.835C320.645 219.092 320.565 219.343 320.415 219.552C320.265 219.761 320.054 219.918 319.81 220C319.189 220.311 318.504 220.472 317.81 220.472C317.116 220.472 316.431 220.311 315.81 220Z" fill="#263238"/>
<path d="M380.29 257.25C380.046 257.168 379.835 257.011 379.685 256.802C379.535 256.593 379.455 256.342 379.455 256.085C379.455 255.828 379.535 255.577 379.685 255.368C379.835 255.159 380.046 255.003 380.29 254.92C380.911 254.609 381.596 254.448 382.29 254.448C382.984 254.448 383.669 254.609 384.29 254.92C384.534 255.003 384.745 255.159 384.895 255.368C385.045 255.577 385.125 255.828 385.125 256.085C385.125 256.342 385.045 256.593 384.895 256.802C384.745 257.011 384.534 257.168 384.29 257.25C383.669 257.561 382.984 257.722 382.29 257.722C381.596 257.722 380.911 257.561 380.29 257.25Z" fill="#263238"/>
<path d="M372.23 252.59C371.986 252.507 371.775 252.351 371.625 252.142C371.475 251.933 371.395 251.682 371.395 251.425C371.395 251.168 371.475 250.917 371.625 250.708C371.775 250.499 371.986 250.342 372.23 250.26C372.851 249.949 373.536 249.788 374.23 249.788C374.924 249.788 375.609 249.949 376.23 250.26C376.474 250.342 376.685 250.499 376.835 250.708C376.985 250.917 377.065 251.168 377.065 251.425C377.065 251.682 376.985 251.933 376.835 252.142C376.685 252.351 376.474 252.507 376.23 252.59C375.609 252.901 374.924 253.062 374.23 253.062C373.536 253.062 372.851 252.901 372.23 252.59Z" fill="#263238"/>
<path d="M175.72 367.59V368C175.738 368.378 175.846 368.746 176.033 369.074C176.221 369.403 176.484 369.682 176.8 369.89L200.15 383.37C200.489 383.537 200.862 383.625 201.24 383.625C201.618 383.625 201.991 383.537 202.33 383.37L241 361.07C241.315 360.861 241.577 360.581 241.764 360.253C241.952 359.925 242.06 359.557 242.08 359.18V358.75C242.062 358.372 241.954 358.004 241.767 357.675C241.579 357.347 241.316 357.068 241 356.86L217.65 343.38C217.311 343.212 216.938 343.125 216.56 343.125C216.182 343.125 215.809 343.212 215.47 343.38L176.8 365.7C176.484 365.908 176.221 366.187 176.033 366.515C175.846 366.844 175.738 367.212 175.72 367.59Z" fill="#25D366"/>
<path d="M175.72 367.59V368C175.738 368.378 175.846 368.746 176.033 369.074C176.221 369.403 176.484 369.682 176.8 369.89L200.15 383.37C200.489 383.537 200.862 383.625 201.24 383.625C201.618 383.625 201.991 383.537 202.33 383.37L241 361.07C241.315 360.861 241.577 360.581 241.764 360.253C241.952 359.925 242.06 359.557 242.08 359.18V358.75C242.062 358.372 241.954 358.004 241.767 357.675C241.579 357.347 241.316 357.068 241 356.86L217.65 343.38C217.311 343.212 216.938 343.125 216.56 343.125C216.182 343.125 215.809 343.212 215.47 343.38L176.8 365.7C176.484 365.908 176.221 366.187 176.033 366.515C175.846 366.844 175.738 367.212 175.72 367.59Z" fill="#25D366"/>
<path opacity="0.3" d="M241 356.86L217.65 343.38C217.311 343.212 216.938 343.125 216.56 343.125C216.182 343.125 215.809 343.212 215.47 343.38L201.25 351.6V383.6C201.629 383.605 202.004 383.516 202.34 383.34L241 361.07C241.315 360.861 241.577 360.581 241.764 360.253C241.952 359.925 242.06 359.557 242.08 359.18V358.75C242.062 358.372 241.954 358.004 241.767 357.675C241.579 357.347 241.316 357.068 241 356.86Z" fill="white"/>
<path opacity="0.15" d="M241 356.86L217.65 343.38C217.311 343.212 216.938 343.125 216.56 343.125C216.182 343.125 215.809 343.212 215.47 343.38L201.25 351.6V383.6C201.629 383.605 202.004 383.516 202.34 383.34L241 361.07C241.315 360.861 241.577 360.581 241.764 360.253C241.952 359.925 242.06 359.557 242.08 359.18V358.75C242.062 358.372 241.954 358.004 241.767 357.675C241.579 357.347 241.316 357.068 241 356.86Z" fill="black"/>
<path opacity="0.3" d="M201.24 351.6L176.8 365.7C176.484 365.908 176.221 366.187 176.033 366.515C175.846 366.844 175.738 367.212 175.72 367.59V368C175.738 368.378 175.846 368.746 176.033 369.074C176.221 369.403 176.484 369.682 176.8 369.89L200.15 383.37C200.486 383.547 200.861 383.637 201.24 383.63V351.6Z" fill="white"/>
<path opacity="0.2" d="M201.24 351.6L176.8 365.7C176.484 365.908 176.221 366.187 176.033 366.515C175.846 366.844 175.738 367.212 175.72 367.59V368C175.738 368.378 175.846 368.746 176.033 369.074C176.221 369.403 176.484 369.682 176.8 369.89L200.15 383.37C200.486 383.547 200.861 383.637 201.24 383.63V351.6Z" fill="black"/>
<path d="M196.41 378.28L176.8 367C176.671 366.953 176.559 366.867 176.48 366.755C176.4 366.642 176.358 366.508 176.358 366.37C176.358 366.232 176.4 366.098 176.48 365.985C176.559 365.872 176.671 365.787 176.8 365.74L215.46 343.42C215.799 343.252 216.172 343.165 216.55 343.165C216.928 343.165 217.301 343.252 217.64 343.42L241 356.86C241.129 356.907 241.241 356.992 241.32 357.105C241.4 357.218 241.442 357.352 241.442 357.49C241.442 357.628 241.4 357.762 241.32 357.875C241.241 357.987 241.129 358.073 241 358.12L234.58 361.82L232.34 363.12L202.34 380.44C202.003 380.613 201.629 380.703 201.25 380.703C200.871 380.703 200.497 380.613 200.16 380.44L198.26 379.34L196.41 378.28Z" fill="#25D366"/>
<path opacity="0.3" d="M196.41 378.28L176.8 367C176.671 366.953 176.559 366.867 176.48 366.755C176.4 366.642 176.358 366.508 176.358 366.37C176.358 366.232 176.4 366.098 176.48 365.985C176.559 365.872 176.671 365.787 176.8 365.74L215.46 343.42C215.799 343.252 216.172 343.165 216.55 343.165C216.928 343.165 217.301 343.252 217.64 343.42L241 356.86C241.129 356.907 241.241 356.992 241.32 357.105C241.4 357.218 241.442 357.352 241.442 357.49C241.442 357.628 241.4 357.762 241.32 357.875C241.241 357.987 241.129 358.073 241 358.12L234.58 361.82L232.34 363.12L202.34 380.44C202.003 380.613 201.629 380.703 201.25 380.703C200.871 380.703 200.497 380.613 200.16 380.44L198.26 379.34L196.41 378.28Z" fill="white"/>
<path opacity="0.15" d="M214.21 359.47L241 356.86L214.46 358.36L217.65 343.36C217.281 343.177 216.871 343.091 216.46 343.11L211.46 363.36L176.37 366.26C176.371 366.404 176.412 366.544 176.49 366.664C176.568 366.785 176.679 366.881 176.81 366.94L205.15 365.3L201.25 380.68L206.25 365.23L211.09 364.95C211.681 364.917 212.243 364.68 212.68 364.28C213.089 363.909 213.372 363.42 213.49 362.88L214.21 359.47Z" fill="black"/>
<path opacity="0.3" d="M184.73 365.59L211.45 363.38L212.45 359.56L212.98 357.43L216.51 343.13C216.162 343.137 215.82 343.222 215.51 343.38L196.18 354.54L176.8 365.7C176.686 365.755 176.587 365.836 176.51 365.937C176.434 366.038 176.382 366.155 176.36 366.28L181.72 365.84L184.73 365.59Z" fill="white"/>
<path d="M212.13 340.19C213.5 339.495 215.014 339.133 216.55 339.133C218.086 339.133 219.6 339.495 220.97 340.19C223.41 341.6 223.41 343.88 220.97 345.29C219.6 345.985 218.086 346.347 216.55 346.347C215.014 346.347 213.5 345.985 212.13 345.29C209.69 343.88 209.69 341.6 212.13 340.19Z" fill="#F28F8F"/>
<path d="M213.46 343.58C213.396 343.574 213.335 343.553 213.28 343.52C213.261 343.504 213.246 343.484 213.238 343.462C213.229 343.439 213.226 343.414 213.23 343.39L213.6 341.79C213.6 341.79 213.6 341.7 213.6 341.64C213.623 341.578 213.67 341.528 213.73 341.5L214.63 340.98C214.688 340.947 214.753 340.93 214.82 340.93C214.89 340.928 214.959 340.946 215.02 340.98L219.76 343.71C219.785 343.717 219.806 343.732 219.822 343.753C219.837 343.774 219.846 343.799 219.846 343.825C219.846 343.851 219.837 343.876 219.822 343.897C219.806 343.917 219.785 343.933 219.76 343.94L218.76 344.5C218.694 344.516 218.626 344.516 218.56 344.5C218.494 344.517 218.426 344.517 218.36 344.5L215.16 342.65L214.95 343.53C214.95 343.58 214.9 343.61 214.84 343.64C214.772 343.661 214.698 343.661 214.63 343.64L213.46 343.58Z" fill="#FAFAFA"/>
<path d="M257 350.55L230.74 335.39C230.14 335.04 230.14 334.48 230.74 334.14L326.06 279.14C326.395 278.972 326.765 278.884 327.14 278.884C327.515 278.884 327.885 278.972 328.22 279.14L354.49 294.31C355.09 294.65 355.09 295.21 354.49 295.56L259.17 350.56C258.834 350.731 258.461 350.82 258.084 350.818C257.706 350.816 257.335 350.724 257 350.55Z" fill="#25D366"/>
<path d="M252 333.42C251.918 333.467 251.825 333.492 251.73 333.49H251.52L246.06 332.87L249.29 334.74C249.314 334.75 249.334 334.767 249.348 334.788C249.362 334.809 249.37 334.834 249.37 334.86C249.37 334.886 249.362 334.911 249.348 334.932C249.334 334.953 249.314 334.97 249.29 334.98L248.65 335.35C248.582 335.371 248.508 335.371 248.44 335.35C248.371 335.371 248.298 335.371 248.23 335.35L243.16 332.43C243.1 332.43 243.07 332.35 243.07 332.3C243.073 332.274 243.083 332.249 243.099 332.228C243.115 332.207 243.136 332.19 243.16 332.18L243.71 331.86C243.792 331.813 243.885 331.789 243.98 331.79H244.2L249.66 332.41L246.42 330.54C246.396 330.53 246.376 330.513 246.362 330.492C246.348 330.471 246.34 330.446 246.34 330.42C246.34 330.394 246.348 330.369 246.362 330.348C246.376 330.327 246.396 330.31 246.42 330.3L247.06 329.93C247.125 329.897 247.197 329.88 247.27 329.88C247.343 329.878 247.416 329.895 247.48 329.93L252.55 332.86C252.582 332.86 252.612 332.873 252.635 332.895C252.657 332.918 252.67 332.948 252.67 332.98C252.67 333.012 252.657 333.042 252.635 333.065C252.612 333.087 252.582 333.1 252.55 333.1L252 333.42Z" fill="#FAFAFA"/>
<path d="M251.65 331.25C251.391 331.106 251.158 330.921 250.96 330.7C250.804 330.531 250.703 330.318 250.67 330.09C250.654 329.871 250.71 329.654 250.83 329.47C250.99 329.236 251.206 329.047 251.46 328.92C251.756 328.75 252.077 328.625 252.41 328.55C252.755 328.477 253.107 328.444 253.46 328.45C253.797 328.463 254.132 328.51 254.46 328.59C254.775 328.672 255.078 328.797 255.36 328.96L255.71 329.16C255.734 329.17 255.754 329.187 255.768 329.208C255.782 329.229 255.79 329.254 255.79 329.28C255.79 329.306 255.782 329.331 255.768 329.352C255.754 329.373 255.734 329.39 255.71 329.4L253.09 330.92C253.214 330.989 253.35 331.036 253.49 331.06C253.633 331.075 253.777 331.075 253.92 331.06C254.065 331.04 254.209 331.01 254.35 330.97C254.483 330.927 254.61 330.87 254.73 330.8C254.862 330.731 254.983 330.644 255.09 330.54C255.153 330.476 255.198 330.397 255.22 330.31C255.23 330.263 255.25 330.218 255.28 330.18C255.314 330.14 255.354 330.106 255.4 330.08L256.03 329.72C256.095 329.687 256.167 329.67 256.24 329.67C256.314 329.663 256.388 329.68 256.45 329.72C256.531 329.773 256.589 329.855 256.61 329.95C256.65 330.077 256.65 330.213 256.61 330.34C256.555 330.523 256.459 330.69 256.33 330.83C256.144 331.039 255.925 331.215 255.68 331.35C255.381 331.514 255.061 331.639 254.73 331.72C254.385 331.794 254.033 331.827 253.68 331.82C253.341 331.8 253.006 331.743 252.68 331.65C252.322 331.558 251.976 331.424 251.65 331.25ZM252.4 329.46C252.278 329.526 252.17 329.615 252.08 329.72C252.023 329.795 251.988 329.886 251.98 329.98C251.979 330.062 252.003 330.143 252.05 330.21C252.09 330.286 252.148 330.352 252.22 330.4L253.99 329.4C253.893 329.356 253.793 329.319 253.69 329.29C253.566 329.254 253.439 329.234 253.31 329.23C253.165 329.232 253.021 329.249 252.88 329.28C252.714 329.322 252.553 329.383 252.4 329.46Z" fill="#FAFAFA"/>
<path d="M260.62 326.53L259.09 324.82C259.061 324.789 259.04 324.751 259.03 324.71C259.03 324.71 259.03 324.63 259.12 324.59L259.71 324.24C259.778 324.206 259.854 324.189 259.93 324.19C260.003 324.19 260.075 324.207 260.14 324.24L262.58 327.01C262.608 327.046 262.628 327.086 262.64 327.13C262.64 327.13 262.64 327.21 262.55 327.26L261.95 327.6C261.884 327.64 261.807 327.657 261.73 327.65H261.52L258.67 326.88L260 328.53C260.028 328.566 260.048 328.606 260.06 328.65C260.06 328.65 260.06 328.73 259.97 328.77L259.38 329.12C259.314 329.159 259.237 329.177 259.16 329.17C259.09 329.18 259.02 329.18 258.95 329.17L254.15 327.77C254.15 327.77 254.15 327.77 254.09 327.77C254.058 327.77 254.028 327.757 254.005 327.735C253.983 327.712 253.97 327.682 253.97 327.65C253.97 327.618 253.983 327.588 254.005 327.565C254.028 327.543 254.058 327.53 254.09 327.53L254.68 327.18C254.746 327.141 254.823 327.123 254.9 327.13H255.09L258.04 328.01L256.55 326.28C256.543 326.263 256.539 326.244 256.539 326.225C256.539 326.206 256.543 326.187 256.55 326.17C256.548 326.144 256.555 326.118 256.57 326.097C256.584 326.075 256.605 326.059 256.63 326.05L257.23 325.7C257.299 325.683 257.371 325.683 257.44 325.7C257.506 325.689 257.574 325.689 257.64 325.7L260.62 326.53Z" fill="#FAFAFA"/>
<path d="M264.17 324C263.91 323.853 263.677 323.664 263.48 323.44C263.322 323.272 263.221 323.058 263.19 322.83C263.161 322.615 263.215 322.397 263.34 322.22C263.504 321.987 263.72 321.796 263.97 321.66C264.283 321.488 264.62 321.363 264.97 321.29C265.299 321.225 265.634 321.191 265.97 321.19C266.308 321.202 266.643 321.253 266.97 321.34C267.286 321.414 267.59 321.536 267.87 321.7L268.22 321.9C268.28 321.94 268.31 321.98 268.31 322.02C268.31 322.07 268.31 322.11 268.22 322.15L265.6 323.66C265.72 323.732 265.852 323.779 265.99 323.8C266.133 323.815 266.277 323.815 266.42 323.8C266.57 323.789 266.718 323.759 266.86 323.71C266.994 323.672 267.122 323.614 267.24 323.54C267.374 323.475 267.496 323.387 267.6 323.28C267.659 323.217 267.704 323.142 267.73 323.06C267.737 323.01 267.754 322.963 267.78 322.92C267.814 322.878 267.859 322.847 267.91 322.83L268.54 322.46C268.605 322.427 268.677 322.41 268.75 322.41C268.823 322.41 268.895 322.427 268.96 322.46C269.037 322.522 269.092 322.605 269.12 322.7C269.16 322.827 269.16 322.963 269.12 323.09C269.055 323.268 268.96 323.434 268.84 323.58C268.65 323.785 268.427 323.958 268.18 324.09C267.884 324.26 267.563 324.385 267.23 324.46C266.902 324.535 266.566 324.569 266.23 324.56C265.871 324.548 265.515 324.491 265.17 324.39C264.821 324.305 264.485 324.174 264.17 324ZM264.92 322.21C264.794 322.27 264.685 322.359 264.6 322.47C264.537 322.542 264.502 322.634 264.5 322.73C264.495 322.811 264.516 322.892 264.56 322.96C264.609 323.027 264.666 323.087 264.73 323.14L266.51 322.14C266.41 322.094 266.306 322.057 266.2 322.03C266.079 321.997 265.955 321.98 265.83 321.98C265.685 321.972 265.539 321.989 265.4 322.03C265.228 322.069 265.065 322.14 264.92 322.24V322.21Z" fill="#FAFAFA"/>
<path d="M268.25 319.77C268.227 319.605 268.266 319.438 268.36 319.3C268.468 319.136 268.616 319.002 268.79 318.91C269.097 318.727 269.437 318.605 269.79 318.55C270.122 318.502 270.458 318.502 270.79 318.55C270.77 318.451 270.77 318.349 270.79 318.25C270.807 318.141 270.844 318.036 270.9 317.94C270.958 317.836 271.032 317.741 271.12 317.66C271.215 317.573 271.319 317.496 271.43 317.43C271.706 317.268 272.006 317.153 272.32 317.09C272.61 317.034 272.906 317.017 273.2 317.04C273.49 317.068 273.776 317.131 274.05 317.23C274.317 317.328 274.574 317.448 274.82 317.59L276.94 318.81C276.963 318.822 276.983 318.84 276.996 318.862C277.01 318.884 277.017 318.909 277.017 318.935C277.017 318.961 277.01 318.986 276.996 319.008C276.983 319.03 276.963 319.048 276.94 319.06L276.34 319.4C276.275 319.433 276.203 319.45 276.13 319.45C276.054 319.451 275.978 319.434 275.91 319.4L273.84 318.2C273.553 318.022 273.227 317.916 272.89 317.89C272.616 317.89 272.347 317.962 272.11 318.1C272.023 318.137 271.946 318.196 271.888 318.272C271.831 318.347 271.793 318.436 271.78 318.53C271.78 318.69 271.92 318.88 272.25 319.08L274.36 320.3C274.392 320.3 274.422 320.313 274.445 320.335C274.467 320.358 274.48 320.388 274.48 320.42C274.48 320.452 274.467 320.482 274.445 320.505C274.422 320.527 274.392 320.54 274.36 320.54L273.76 320.89C273.696 320.925 273.623 320.942 273.55 320.94C273.477 320.94 273.405 320.923 273.34 320.89L271.27 319.69C270.986 319.505 270.658 319.398 270.32 319.38C270.045 319.369 269.772 319.442 269.54 319.59C269.449 319.627 269.37 319.687 269.31 319.764C269.251 319.841 269.212 319.933 269.2 320.03C269.2 320.2 269.36 320.39 269.72 320.59L271.79 321.78C271.813 321.794 271.832 321.813 271.845 321.836C271.859 321.858 271.868 321.884 271.87 321.91C271.868 321.935 271.859 321.959 271.845 321.98C271.831 322.001 271.812 322.018 271.79 322.03L271.19 322.37C271.125 322.403 271.053 322.42 270.98 322.42C270.907 322.42 270.835 322.403 270.77 322.37L267.11 320.26C267.078 320.26 267.048 320.247 267.025 320.225C267.003 320.202 266.99 320.172 266.99 320.14C266.99 320.108 267.003 320.078 267.025 320.055C267.048 320.033 267.078 320.02 267.11 320.02L267.71 319.67C267.774 319.635 267.847 319.618 267.92 319.62C267.993 319.62 268.065 319.637 268.13 319.67L268.25 319.77Z" fill="#FAFAFA"/>
<path d="M275.06 316.55C274.97 316.469 274.899 316.37 274.85 316.26C274.809 316.133 274.809 315.997 274.85 315.87C274.887 315.703 274.966 315.548 275.08 315.42C275.249 315.227 275.452 315.068 275.68 314.95C275.943 314.801 276.222 314.681 276.51 314.59C276.791 314.513 277.079 314.466 277.37 314.45C277.663 314.439 277.957 314.472 278.24 314.55C278.534 314.621 278.816 314.732 279.08 314.88L281.39 316.21C281.413 316.224 281.432 316.243 281.445 316.265C281.459 316.288 281.468 316.314 281.47 316.34C281.469 316.365 281.461 316.39 281.447 316.411C281.433 316.432 281.413 316.449 281.39 316.46L280.79 316.8C280.727 316.838 280.653 316.855 280.58 316.85C280.506 316.857 280.432 316.84 280.37 316.8L280.11 316.65C280.147 316.822 280.114 317.002 280.02 317.15C279.862 317.386 279.645 317.576 279.39 317.7C279.174 317.829 278.942 317.929 278.7 318C278.472 318.065 278.237 318.102 278 318.11C277.775 318.111 277.551 318.091 277.33 318.05C277.123 318.002 276.925 317.925 276.74 317.82C276.38 317.61 276.23 317.37 276.28 317.11C276.378 316.767 276.594 316.47 276.89 316.27L277.95 315.41C277.75 315.286 277.513 315.236 277.28 315.27C277.048 315.299 276.823 315.374 276.62 315.49C276.523 315.542 276.438 315.614 276.37 315.7C276.336 315.765 276.316 315.837 276.31 315.91C276.316 315.953 276.316 315.997 276.31 316.04C276.28 316.074 276.242 316.102 276.2 316.12L275.47 316.55C275.411 316.566 275.349 316.566 275.29 316.55C275.256 316.574 275.216 316.586 275.175 316.586C275.134 316.586 275.094 316.574 275.06 316.55ZM278.58 317.07C278.73 316.986 278.865 316.878 278.98 316.75C279.062 316.661 279.114 316.549 279.13 316.43C279.138 316.331 279.113 316.233 279.06 316.15C278.997 316.054 278.911 315.975 278.81 315.92L278.73 315.87L277.85 316.6C277.715 316.686 277.611 316.812 277.55 316.96C277.55 317.05 277.55 317.14 277.69 317.21C277.823 317.257 277.967 317.257 278.1 317.21C278.266 317.188 278.428 317.141 278.58 317.07Z" fill="#FAFAFA"/>
<path d="M277.89 312C277.955 311.967 278.027 311.95 278.1 311.95C278.173 311.95 278.245 311.967 278.31 312L278.92 312.35C278.944 312.36 278.965 312.377 278.981 312.398C278.997 312.419 279.007 312.444 279.01 312.47C279.01 312.52 279.01 312.56 278.92 312.6L278.25 312.99C278.185 313.023 278.113 313.04 278.04 313.04C277.964 313.041 277.888 313.024 277.82 312.99L277.21 312.63C277.186 312.62 277.166 312.603 277.152 312.582C277.138 312.561 277.13 312.536 277.13 312.51C277.13 312.484 277.138 312.459 277.152 312.438C277.166 312.417 277.186 312.4 277.21 312.39L277.89 312ZM283.42 315C283.48 315 283.51 315.08 283.51 315.13C283.51 315.18 283.51 315.21 283.42 315.25L282.82 315.59C282.755 315.624 282.683 315.641 282.61 315.64C282.537 315.645 282.463 315.628 282.4 315.59L278.74 313.48C278.717 313.469 278.697 313.452 278.683 313.431C278.669 313.41 278.661 313.385 278.66 313.36C278.659 313.334 278.666 313.308 278.68 313.287C278.694 313.265 278.715 313.249 278.74 313.24L279.34 312.89C279.405 312.857 279.477 312.84 279.55 312.84C279.623 312.838 279.696 312.855 279.76 312.89L283.42 315Z" fill="#FAFAFA"/>
<path d="M285.52 313.81C285.544 313.82 285.564 313.836 285.578 313.858C285.592 313.879 285.6 313.904 285.6 313.93C285.6 313.956 285.592 313.981 285.578 314.002C285.564 314.023 285.544 314.04 285.52 314.05L284.93 314.4C284.865 314.433 284.793 314.45 284.72 314.45C284.644 314.451 284.568 314.434 284.5 314.4L279.35 311.4C279.327 311.386 279.308 311.367 279.295 311.344C279.281 311.322 279.272 311.296 279.27 311.27C279.272 311.245 279.281 311.221 279.295 311.2C279.309 311.179 279.328 311.162 279.35 311.15L279.95 310.81C280.018 310.789 280.092 310.789 280.16 310.81C280.232 310.788 280.308 310.788 280.38 310.81L285.52 313.81Z" fill="#FAFAFA"/>
<path d="M254.39 337.64L332.17 292.74C332.639 292.466 333.165 292.307 333.707 292.274C334.249 292.241 334.791 292.335 335.29 292.55C336.06 292.99 335.91 293.8 334.96 294.35L257.18 339.26C256.709 339.533 256.181 339.692 255.637 339.725C255.094 339.758 254.551 339.664 254.05 339.45C253.28 339 253.44 338.2 254.39 337.64Z" fill="#FAFAFA"/>
<path d="M259.85 340.8L337.63 295.9C338.098 295.626 338.625 295.465 339.166 295.43C339.708 295.395 340.25 295.488 340.75 295.7C341.53 296.15 341.37 296.95 340.42 297.51L262.64 342.41C262.17 342.684 261.642 342.845 261.099 342.88C260.555 342.915 260.011 342.822 259.51 342.61C258.75 342.16 258.9 341.35 259.85 340.8Z" fill="#FAFAFA"/>
<path d="M144.38 369.94L103.76 346.49L285.72 241.43L327.17 264.41L144.38 369.94Z" fill="#E0E0E0"/>
<path d="M133.39 223.73L306.45 123.81L313.37 127.81C314.316 128.43 315.104 129.263 315.67 130.243C316.236 131.222 316.565 132.321 316.63 133.45V261.11C316.567 262.24 316.239 263.339 315.672 264.319C315.106 265.298 314.317 266.131 313.37 266.75L146.83 362.91C145.82 363.418 144.705 363.683 143.575 363.683C142.445 363.683 141.33 363.418 140.32 362.91L136.65 360.79C135.704 360.17 134.916 359.337 134.35 358.357C133.784 357.378 133.455 356.279 133.39 355.15V223.73Z" fill="#25D366"/>
<path opacity="0.2" d="M133.39 223.73L306.45 123.81L313.37 127.81C314.316 128.43 315.104 129.263 315.67 130.243C316.236 131.222 316.565 132.321 316.63 133.45V261.11C316.567 262.24 316.239 263.339 315.672 264.319C315.106 265.298 314.317 266.131 313.37 266.75L146.83 362.91C145.82 363.418 144.705 363.683 143.575 363.683C142.445 363.683 141.33 363.418 140.32 362.91L136.65 360.79C135.704 360.17 134.916 359.337 134.35 358.357C133.784 357.378 133.455 356.279 133.39 355.15V223.73Z" fill="black"/>
<path d="M305.49 112.59L306.2 112.21L303.51 110.64C303.283 110.505 303.045 110.388 302.8 110.29L226.64 82.08C225.593 81.7385 224.465 81.7344 223.416 82.0681C222.366 82.4018 221.448 83.0565 220.79 83.94L135.59 208.36C134.263 210.5 133.506 212.944 133.39 215.46V223.73L136.03 225.26L306.45 123.81V115.55C306.418 114.492 306.085 113.465 305.49 112.59Z" fill="#25D366"/>
<path opacity="0.1" d="M224.31 84.5401C223.974 84.8109 223.678 85.1273 223.43 85.4801L138.23 209.89C137.528 210.991 136.995 212.191 136.65 213.45L134 211.92C134.189 211.279 134.42 210.651 134.69 210.04C134.689 210.02 134.689 210 134.69 209.98C134.81 209.72 134.93 209.48 135.06 209.23C135.076 209.188 135.096 209.148 135.12 209.11C135.255 208.851 135.405 208.601 135.57 208.36L220.79 84.0001C220.916 83.8162 221.057 83.6423 221.21 83.4801C221.36 83.3401 221.51 83.1901 221.67 83.0601L224.31 84.5401Z" fill="black"/>
<path opacity="0.35" d="M306.17 112.19C305.939 112.049 305.694 111.932 305.44 111.84L229.27 83.61C228.426 83.3268 227.524 83.2636 226.649 83.4263C225.774 83.5891 224.955 83.9724 224.27 84.54L221.67 83C222.358 82.4366 223.177 82.0559 224.051 81.8934C224.925 81.7308 225.826 81.7915 226.67 82.07L302.8 110.3C303.047 110.394 303.285 110.512 303.51 110.65L306.17 112.19Z" fill="white"/>
<path d="M134.71 210C134.82 209.74 134.95 209.49 135.07 209.25C135 209.47 134.82 209.72 134.71 210Z" fill="#25D366"/>
<path d="M223.43 85.48L138.23 209.89C136.894 212.032 136.126 214.479 136 217V225.26L309.06 125.34V117.08C309.007 115.952 308.636 114.861 307.99 113.934C307.344 113.007 306.45 112.281 305.41 111.84L229.28 83.62C228.233 83.2739 227.104 83.2674 226.053 83.6015C225.003 83.9355 224.085 84.593 223.43 85.48Z" fill="#25D366"/>
<path opacity="0.05" d="M309.09 117.08C309.056 116.043 308.734 115.035 308.16 114.17L136.65 213.45C136.268 214.597 136.049 215.792 136 217V225.26L309.06 125.34L309.09 117.08Z" fill="black"/>
<path d="M301.7 82C301.734 81.654 301.677 81.305 301.535 80.9876C301.393 80.6702 301.171 80.3953 300.89 80.19L295.6 77.19C295.279 77.0439 294.924 76.9854 294.573 77.0205C294.222 77.0557 293.886 77.1832 293.6 77.39L151.6 159.39C150.782 159.924 150.102 160.643 149.613 161.489C149.125 162.335 148.843 163.285 148.79 164.26V334.26C148.755 334.609 148.813 334.96 148.957 335.28C149.101 335.599 149.326 335.875 149.61 336.08L154.88 339.08C155.2 339.228 155.554 339.288 155.906 339.254C156.257 339.221 156.593 339.095 156.88 338.89L298.88 256.94C299.708 256.4 300.396 255.67 300.887 254.811C301.377 253.952 301.656 252.988 301.7 252V82Z" fill="#25D366"/>
<path opacity="0.95" d="M301.7 82C301.734 81.654 301.677 81.305 301.535 80.9876C301.393 80.6702 301.171 80.3953 300.89 80.19L295.6 77.19C295.279 77.0439 294.924 76.9854 294.573 77.0205C294.222 77.0557 293.886 77.1832 293.6 77.39L151.6 159.39C150.782 159.924 150.102 160.643 149.613 161.489C149.125 162.335 148.843 163.285 148.79 164.26V334.26C148.755 334.609 148.813 334.96 148.957 335.28C149.101 335.599 149.326 335.875 149.61 336.08L154.88 339.08C155.2 339.228 155.554 339.288 155.906 339.254C156.257 339.221 156.593 339.095 156.88 338.89L298.88 256.94C299.708 256.4 300.396 255.67 300.887 254.811C301.377 253.952 301.656 252.988 301.7 252V82Z" fill="white"/>
<path d="M156.94 338.83L298.94 256.88C299.749 256.339 300.421 255.616 300.9 254.768C301.379 253.921 301.653 252.973 301.7 252V82C301.7 80.21 300.44 79.49 298.89 80.38L156.94 162.38C156.123 162.915 155.442 163.634 154.954 164.48C154.466 165.326 154.184 166.275 154.13 167.25V337.25C154.13 339 155.39 339.72 156.94 338.83Z" fill="#25D366"/>
<path opacity="0.8" d="M156.94 338.83L298.94 256.88C299.749 256.339 300.421 255.616 300.9 254.768C301.379 253.921 301.653 252.973 301.7 252V82C301.7 80.21 300.44 79.49 298.89 80.38L156.94 162.38C156.123 162.915 155.442 163.634 154.954 164.48C154.466 165.326 154.184 166.275 154.13 167.25V337.25C154.13 339 155.39 339.72 156.94 338.83Z" fill="white"/>
<path d="M154.13 337.2C154.103 337.518 154.148 337.838 154.262 338.136C154.377 338.434 154.557 338.702 154.79 338.92C153.84 338.38 150.16 336.24 149.69 335.98C149.401 335.782 149.171 335.508 149.025 335.19C148.879 334.871 148.822 334.519 148.86 334.17V164.17C148.892 163.194 149.178 162.242 149.69 161.41L154.96 164.41C154.449 165.25 154.163 166.207 154.13 167.19V337.2Z" fill="#25D366"/>
<path opacity="0.7" d="M154.13 337.2C154.103 337.518 154.148 337.838 154.262 338.136C154.377 338.434 154.557 338.702 154.79 338.92C153.84 338.38 150.16 336.24 149.69 335.98C149.401 335.782 149.171 335.508 149.025 335.19C148.879 334.871 148.822 334.519 148.86 334.17V164.17C148.892 163.194 149.178 162.242 149.69 161.41L154.96 164.41C154.449 165.25 154.163 166.207 154.13 167.19V337.2Z" fill="white"/>
<path opacity="0.05" d="M154.13 337.2C154.103 337.518 154.148 337.838 154.262 338.136C154.377 338.434 154.557 338.702 154.79 338.92C153.84 338.38 150.16 336.24 149.69 335.98C149.401 335.782 149.171 335.508 149.025 335.19C148.879 334.871 148.822 334.519 148.86 334.17V164.17C148.892 163.194 149.178 162.242 149.69 161.41L154.96 164.41C154.449 165.25 154.163 166.207 154.13 167.19V337.2Z" fill="black"/>
<path d="M312.24 262.81C312.19 262.903 312.13 262.991 312.06 263.07L239.94 240.2C237.2 238.989 234.116 238.807 231.253 239.689C228.391 240.571 225.943 242.457 224.36 245L147.26 359.59L144.41 361.24C144.093 361.462 143.725 361.6 143.341 361.642C142.956 361.684 142.567 361.628 142.21 361.48L221.5 243.37C223.086 240.828 225.535 238.942 228.398 238.059C231.262 237.175 234.347 237.353 237.09 238.56L312.24 262.81Z" fill="#25D366"/>
<path opacity="0.4" d="M217.26 256.25L217.44 256.09L147.26 359.59L144.4 361.24C144.08 361.46 143.712 361.598 143.326 361.642C142.941 361.685 142.55 361.633 142.19 361.49L214.5 254.58L217.26 256.25Z" fill="white"/>
<path opacity="0.4" d="M312.24 262.82C312.188 262.912 312.128 262.999 312.06 263.08L239.94 240.2C237.2 238.984 234.112 238.8 231.247 239.682C228.381 240.564 225.932 242.453 224.35 245L221.5 243.34C223.088 240.806 225.536 238.928 228.395 238.051C231.254 237.173 234.333 237.354 237.07 238.56L312.24 262.82Z" fill="white"/>
<path d="M316.57 132.63C316.41 131.7 315.92 131.44 315.28 131.88C314.96 132.121 314.68 132.411 314.45 132.74L314.09 133.24L242.92 241.44L232.3 256.24C231.615 257.103 230.707 257.764 229.674 258.15C228.642 258.535 227.524 258.632 226.44 258.43L217.27 256.25L147.27 230.48C146.802 230.367 146.316 230.346 145.84 230.42C145.659 230.461 145.481 230.518 145.31 230.59L147.95 229.07L215.08 253.67L223.92 256.83C225.003 257.036 226.122 256.94 227.154 256.552C228.186 256.164 229.091 255.499 229.77 254.63L240.4 239.84L311.91 131.14C312.132 130.846 312.407 130.595 312.72 130.4L306.53 126.83L309.13 125.34L313.41 127.81C314.23 128.364 314.932 129.075 315.474 129.902C316.017 130.73 316.389 131.657 316.57 132.63Z" fill="#25D366"/>
<path opacity="0.4" d="M242.91 241.43L232.28 256.24C231.596 257.102 230.689 257.761 229.659 258.147C228.628 258.533 227.512 258.631 226.43 258.43L217.26 256.25L217.44 256.09L217.88 255.39L223.88 256.82C224.962 257.027 226.081 256.933 227.112 256.546C228.144 256.16 229.05 255.497 229.73 254.63L240.26 240L242.91 241.43Z" fill="white"/>
<path opacity="0.1" d="M313.37 127.8L309.09 125.34L306.5 126.83L312.68 130.4C312.367 130.595 312.092 130.846 311.87 131.14L240.35 239.84L240.25 239.98L242.9 241.42L314.06 133.23L314.43 132.72C314.654 132.39 314.935 132.102 315.26 131.87C315.89 131.43 316.39 131.68 316.54 132.62C316.361 131.645 315.988 130.717 315.443 129.889C314.899 129.061 314.194 128.351 313.37 127.8Z" fill="black"/>
<path d="M148.66 232.55L133.39 223.73V355.15C133.455 356.279 133.784 357.378 134.35 358.357C134.916 359.337 135.704 360.17 136.65 360.79L140.32 362.91C141.33 363.418 142.444 363.683 143.575 363.683C144.705 363.683 145.82 363.418 146.83 362.91L148.66 361.85V232.55Z" fill="#25D366"/>
<path opacity="0.15" d="M148.66 232.55L133.39 223.73V355.15C133.455 356.279 133.784 357.378 134.35 358.357C134.916 359.337 135.704 360.17 136.65 360.79L140.32 362.91C141.33 363.418 142.444 363.683 143.575 363.683C144.705 363.683 145.82 363.418 146.83 362.91L148.66 361.85V232.55Z" fill="black"/>
<path d="M316.63 133.45V261.11C316.593 262.276 316.248 263.411 315.63 264.4C315.146 265.239 314.496 265.97 313.72 266.55L313.59 266.61L313.39 266.75L146.83 362.9C146.511 363.126 146.141 363.268 145.753 363.313C145.365 363.359 144.972 363.306 144.61 363.16C144.33 363 144.093 362.774 143.918 362.503C143.744 362.231 143.638 361.921 143.61 361.6C143.594 361.407 143.594 361.213 143.61 361.02V233.36C143.581 232.903 143.664 232.446 143.851 232.027C144.039 231.609 144.324 231.243 144.684 230.96C145.044 230.677 145.468 230.485 145.918 230.401C146.368 230.318 146.832 230.345 147.27 230.48L217.27 256.25L226.44 258.43C227.524 258.632 228.642 258.535 229.674 258.15C230.707 257.764 231.615 257.103 232.3 256.24L242.92 241.44L314.09 133.24L314.45 132.74C315.65 131.06 316.63 131.38 316.63 133.45Z" fill="#25D366"/>
<path d="M313.38 266.75C313.453 266.712 313.523 266.668 313.59 266.62L313.71 266.54C314.486 265.969 315.137 265.244 315.62 264.41C316.226 263.434 316.57 262.318 316.62 261.17L242.91 241.44L292.27 278.93L313.38 266.75Z" fill="#25D366"/>
<path opacity="0.2" d="M313.38 266.75C313.453 266.712 313.523 266.668 313.59 266.62L313.71 266.54C314.486 265.969 315.137 265.244 315.62 264.41C316.226 263.434 316.57 262.318 316.62 261.17L242.91 241.44L292.27 278.93L313.38 266.75Z" fill="black"/>
<path d="M143.57 361C143.52 361.415 143.587 361.835 143.763 362.213C143.94 362.592 144.22 362.913 144.57 363.14C144.931 363.289 145.324 363.344 145.712 363.3C146.1 363.256 146.471 363.115 146.79 362.89L204.13 329.79L217.23 256.24L143.58 358.9L143.57 361Z" fill="#25D366"/>
<path opacity="0.15" d="M224.33 245L144.59 363.16C144.24 362.933 143.96 362.612 143.783 362.233C143.607 361.855 143.54 361.435 143.59 361.02V358.9L221.48 243.38L224.33 245Z" fill="black"/>
<path d="M315.62 264.41C315.137 265.244 314.486 265.969 313.71 266.54L313.59 266.62L146.83 362.9C146.511 363.125 146.14 363.266 145.752 363.31C145.364 363.353 144.971 363.298 144.61 363.15L224.34 245C225.932 242.445 228.392 240.55 231.268 239.661C234.144 238.772 237.244 238.949 240 240.16L315.62 264.41Z" fill="#25D366"/>
<path opacity="0.15" d="M134 211.92L136.65 213.45C136.266 214.596 136.047 215.792 136 217V225.25L133.35 223.72V215.46C133.398 214.255 133.617 213.063 134 211.92Z" fill="black"/>
<path d="M147.92 229.07L145.28 230.59L142.6 229.05L136.03 225.26L138.58 223.74L147.92 229.07Z" fill="#25D366"/>
<path opacity="0.1" d="M148 229.12L138.55 223.74L136 225.26L142.57 229.05L145.25 230.59C145.409 230.516 145.577 230.462 145.75 230.43C146.222 230.348 146.705 230.365 147.17 230.48L152.49 232.48L213.62 254.99L214.62 253.57L148 229.12Z" fill="black"/>
<path d="M411.2 193.49L446.58 170.83L462.16 175.83L411.2 193.49Z" fill="#25D366"/>
<path d="M411.2 193.49L441.78 167.99L434.98 160.14L411.2 193.49Z" fill="#25D366"/>
<path d="M441.78 167.99V173.9L411.2 193.49L441.78 167.99Z" fill="#25D366"/>
<path opacity="0.25" d="M441.78 167.99V173.9L411.2 193.49L441.78 167.99Z" fill="black"/>
<path d="M449 164.56C448.856 164.561 448.714 164.531 448.583 164.473C448.452 164.414 448.335 164.328 448.24 164.22C448.153 164.12 448.087 164.004 448.045 163.878C448.004 163.752 447.988 163.619 447.998 163.487C448.008 163.355 448.044 163.226 448.105 163.108C448.165 162.99 448.249 162.885 448.35 162.8C448.96 162.27 449.57 161.72 450.16 161.16C450.355 160.999 450.603 160.918 450.855 160.933C451.107 160.948 451.344 161.057 451.518 161.239C451.693 161.422 451.792 161.663 451.796 161.915C451.8 162.168 451.709 162.412 451.54 162.6C450.92 163.19 450.3 163.76 449.65 164.32C449.469 164.475 449.238 164.56 449 164.56Z" fill="#E0E0E0"/>
<path d="M454.29 159.32C454.047 159.32 453.812 159.231 453.63 159.07C453.431 158.895 453.31 158.648 453.293 158.384C453.276 158.119 453.365 157.859 453.54 157.66C454.54 156.46 455.61 155.19 456.54 153.88C456.618 153.774 456.716 153.685 456.829 153.617C456.942 153.549 457.066 153.505 457.196 153.485C457.326 153.466 457.459 153.472 457.587 153.504C457.714 153.535 457.834 153.592 457.94 153.67C458.046 153.748 458.135 153.846 458.203 153.959C458.27 154.072 458.315 154.196 458.335 154.326C458.354 154.456 458.348 154.589 458.316 154.717C458.285 154.844 458.228 154.964 458.15 155.07C457.15 156.43 456.09 157.74 455.01 158.98C454.92 159.083 454.809 159.166 454.685 159.225C454.561 159.283 454.427 159.316 454.29 159.32ZM460.15 151.4C459.966 151.399 459.786 151.347 459.63 151.25C459.518 151.181 459.421 151.09 459.345 150.983C459.268 150.876 459.213 150.755 459.183 150.626C459.154 150.498 459.15 150.365 459.171 150.236C459.193 150.106 459.24 149.982 459.31 149.87C460.15 148.52 460.97 147.1 461.73 145.66C461.857 145.432 462.068 145.262 462.318 145.187C462.568 145.113 462.838 145.139 463.069 145.26C463.3 145.382 463.475 145.589 463.555 145.838C463.636 146.086 463.616 146.356 463.5 146.59C462.71 148.08 461.87 149.54 461 150.93C460.91 151.074 460.785 151.193 460.636 151.275C460.487 151.357 460.32 151.4 460.15 151.4ZM464.76 142.69C464.622 142.69 464.485 142.659 464.36 142.6C464.24 142.547 464.131 142.471 464.04 142.375C463.95 142.28 463.879 142.168 463.831 142.046C463.784 141.923 463.761 141.792 463.764 141.661C463.768 141.53 463.797 141.4 463.85 141.28C464.49 139.81 465.11 138.28 465.66 136.77C465.755 136.528 465.942 136.332 466.179 136.225C466.416 136.118 466.686 136.108 466.93 136.196C467.175 136.285 467.376 136.465 467.49 136.699C467.604 136.934 467.622 137.203 467.54 137.45C466.97 139.02 466.34 140.58 465.67 142.09C465.593 142.267 465.465 142.418 465.304 142.525C465.142 142.631 464.953 142.689 464.76 142.69ZM468.14 133.42C468.047 133.435 467.953 133.435 467.86 133.42C467.605 133.346 467.391 133.173 467.263 132.941C467.136 132.708 467.106 132.435 467.18 132.18C467.63 130.64 468.04 129.05 468.4 127.47C468.429 127.339 468.483 127.214 468.56 127.104C468.637 126.994 468.735 126.9 468.848 126.827C468.962 126.755 469.088 126.705 469.221 126.682C469.353 126.658 469.489 126.661 469.62 126.69C469.751 126.719 469.876 126.773 469.986 126.85C470.096 126.927 470.19 127.025 470.263 127.138C470.335 127.252 470.384 127.378 470.408 127.511C470.432 127.643 470.429 127.779 470.4 127.91C470.03 129.53 469.61 131.16 469.15 132.74C469.08 132.949 468.943 133.128 468.76 133.251C468.578 133.374 468.36 133.434 468.14 133.42ZM470.31 123.8H470.15C470.02 123.779 469.895 123.733 469.783 123.664C469.67 123.595 469.573 123.504 469.496 123.398C469.419 123.291 469.363 123.17 469.333 123.041C469.303 122.913 469.299 122.78 469.32 122.65C469.57 121.06 469.78 119.44 469.93 117.82C469.955 117.555 470.085 117.31 470.29 117.141C470.495 116.971 470.76 116.89 471.025 116.915C471.29 116.94 471.535 117.07 471.704 117.275C471.874 117.48 471.955 117.745 471.93 118.01C471.77 119.67 471.55 121.34 471.29 123.01C471.242 123.234 471.118 123.435 470.94 123.579C470.761 123.722 470.539 123.801 470.31 123.8ZM471.24 113.98C470.975 113.98 470.72 113.875 470.533 113.687C470.345 113.5 470.24 113.245 470.24 112.98C470.24 112.21 470.24 111.44 470.24 110.67C470.24 109.9 470.24 108.97 470.24 108.11C470.24 107.845 470.345 107.59 470.533 107.403C470.72 107.215 470.975 107.11 471.24 107.11C471.505 107.11 471.76 107.215 471.947 107.403C472.135 107.59 472.24 107.845 472.24 108.11C472.24 108.99 472.24 109.86 472.24 110.74C472.24 111.62 472.24 112.32 472.24 113.11C472.213 113.356 472.096 113.583 471.911 113.747C471.726 113.911 471.487 114.001 471.24 114V113.98ZM470.89 104.13C470.641 104.131 470.401 104.04 470.216 103.873C470.031 103.707 469.915 103.478 469.89 103.23C469.72 101.61 469.5 99.99 469.22 98.41C469.175 98.1448 469.237 97.8725 469.393 97.6531C469.548 97.4337 469.785 97.2851 470.05 97.24C470.315 97.1949 470.587 97.257 470.807 97.4127C471.026 97.5683 471.175 97.8048 471.22 98.07C471.51 99.69 471.74 101.36 471.91 103.07C471.924 103.201 471.912 103.333 471.875 103.459C471.837 103.585 471.776 103.702 471.693 103.804C471.61 103.907 471.508 103.991 471.393 104.054C471.277 104.117 471.151 104.156 471.02 104.17L470.89 104.13ZM469.18 94.41C468.953 94.4172 468.73 94.3468 468.548 94.2105C468.367 94.0742 468.237 93.88 468.18 93.66C467.78 92.08 467.32 90.52 466.81 89C466.757 88.8735 466.731 88.7375 466.733 88.6005C466.735 88.4635 466.766 88.3284 466.822 88.2035C466.879 88.0787 466.96 87.9668 467.062 87.8748C467.163 87.7828 467.283 87.7127 467.413 87.6687C467.542 87.6248 467.68 87.608 467.816 87.6194C467.953 87.6307 468.086 87.6701 468.206 87.7349C468.327 87.7997 468.433 87.8886 468.518 87.9962C468.603 88.1037 468.665 88.2275 468.7 88.36C469.23 89.93 469.7 91.54 470.12 93.17C470.157 93.3197 470.159 93.476 470.126 93.6266C470.092 93.7772 470.025 93.9181 469.928 94.0382C469.831 94.1582 469.708 94.2543 469.567 94.3188C469.427 94.3833 469.274 94.4145 469.12 94.41H469.18ZM466 85.07C465.805 85.0707 465.614 85.0142 465.45 84.9076C465.287 84.801 465.158 84.6489 465.08 84.47C464.44 82.98 463.73 81.47 462.97 80.11C462.837 79.8766 462.803 79.6001 462.874 79.3413C462.945 79.0825 463.117 78.8626 463.35 78.73C463.583 78.5974 463.86 78.5629 464.119 78.6342C464.377 78.7054 464.597 78.8766 464.73 79.11C465.52 80.57 466.25 82.11 466.92 83.63C467.023 83.874 467.025 84.149 466.926 84.3946C466.827 84.6402 466.634 84.8364 466.39 84.94C466.272 85.0125 466.138 85.057 466 85.07ZM461.33 76.4C461.164 76.4008 461 76.36 460.853 76.2815C460.706 76.2029 460.581 76.0889 460.49 75.95C459.617 74.5869 458.676 73.2685 457.67 72C457.587 71.8971 457.526 71.7789 457.489 71.6522C457.453 71.5254 457.442 71.3927 457.457 71.2617C457.471 71.1306 457.512 71.0038 457.576 70.8885C457.64 70.7732 457.726 70.6718 457.83 70.59C458.037 70.4265 458.301 70.3515 458.563 70.3815C458.825 70.4115 459.065 70.5439 459.23 70.75C460.23 72.04 461.23 73.41 462.23 74.81C462.329 74.9604 462.386 75.1347 462.394 75.3146C462.402 75.4945 462.361 75.6733 462.276 75.8321C462.191 75.9908 462.065 76.1237 461.911 76.2166C461.757 76.3095 461.58 76.359 461.4 76.36L461.33 76.4ZM455.17 68.7C455.035 68.6995 454.902 68.6717 454.778 68.6185C454.655 68.5652 454.543 68.4875 454.45 68.39C453.35 67.24 452.18 66.1 450.96 65.01C450.762 64.831 450.644 64.5808 450.631 64.3145C450.618 64.0482 450.711 63.7876 450.89 63.59C451.069 63.3924 451.319 63.274 451.585 63.2609C451.852 63.2478 452.112 63.341 452.31 63.52C453.56 64.65 454.77 65.83 455.9 67.01C456.035 67.152 456.126 67.3308 456.161 67.524C456.195 67.7172 456.172 67.9163 456.094 68.0965C456.016 68.2767 455.887 68.43 455.723 68.5373C455.559 68.6446 455.366 68.7012 455.17 68.7ZM447.86 62.08C447.636 62.0778 447.419 62.0043 447.24 61.87C445.99 60.87 444.67 59.87 443.33 58.97C443.209 58.9019 443.103 58.8093 443.02 58.6981C442.936 58.5868 442.877 58.4594 442.845 58.324C442.814 58.1885 442.811 58.048 442.837 57.9114C442.863 57.7748 442.917 57.6452 442.996 57.5307C443.075 57.4162 443.177 57.3194 443.295 57.2465C443.414 57.1736 443.546 57.1262 443.684 57.1073C443.822 57.0884 443.962 57.0985 444.095 57.1368C444.229 57.1752 444.353 57.2409 444.46 57.33C445.85 58.33 447.2 59.33 448.46 60.33C448.668 60.4935 448.802 60.7326 448.834 60.9949C448.866 61.2572 448.792 61.5215 448.63 61.73C448.538 61.8372 448.425 61.9238 448.297 61.9842C448.17 62.0445 448.031 62.0771 447.89 62.08H447.86ZM439.76 56.46C439.576 56.4587 439.396 56.4068 439.24 56.31C437.87 55.48 436.45 54.66 435.01 53.88C434.795 53.7456 434.639 53.5347 434.574 53.2899C434.509 53.0451 434.539 52.7846 434.658 52.5612C434.778 52.3377 434.977 52.1679 435.217 52.086C435.457 52.0041 435.719 52.0162 435.95 52.12C437.43 52.92 438.89 53.75 440.28 54.61C440.464 54.7242 440.607 54.8953 440.685 55.0974C440.764 55.2996 440.775 55.5218 440.716 55.7306C440.657 55.9394 440.532 56.1234 440.36 56.255C440.187 56.3866 439.977 56.4585 439.76 56.46ZM431.08 51.77C430.931 51.7691 430.784 51.7349 430.65 51.67C429.19 50.98 427.65 50.31 426.19 49.67C426.068 49.6194 425.958 49.5454 425.865 49.4522C425.772 49.359 425.699 49.2485 425.649 49.1268C425.598 49.0052 425.573 48.8748 425.573 48.7433C425.573 48.6117 425.599 48.4815 425.65 48.36C425.701 48.2385 425.774 48.1282 425.868 48.0353C425.961 47.9424 426.071 47.8688 426.193 47.8187C426.315 47.7685 426.445 47.7428 426.577 47.7431C426.708 47.7433 426.838 47.7694 426.96 47.82C428.49 48.46 430.02 49.15 431.51 49.82C431.713 49.9184 431.877 50.0828 431.975 50.2863C432.073 50.4898 432.099 50.7204 432.049 50.9407C432 51.161 431.877 51.3579 431.701 51.4994C431.525 51.6409 431.306 51.7187 431.08 51.72V51.77ZM330.08 49.29C329.841 49.2943 329.608 49.2127 329.423 49.0598C329.239 48.907 329.116 48.6931 329.076 48.457C329.036 48.2209 329.082 47.9784 329.206 47.7734C329.329 47.5684 329.522 47.4146 329.75 47.34C331.31 46.78 332.89 46.25 334.45 45.75C334.577 45.6995 334.714 45.6757 334.85 45.68C334.987 45.6844 335.122 45.7168 335.246 45.7753C335.37 45.8338 335.48 45.9171 335.57 46.0201C335.661 46.123 335.729 46.2434 335.771 46.3738C335.813 46.5042 335.827 46.6419 335.814 46.7781C335.8 46.9144 335.759 47.0465 335.692 47.1661C335.626 47.2858 335.535 47.3905 335.426 47.4737C335.318 47.5569 335.193 47.6169 335.06 47.65C333.53 48.14 331.97 48.65 330.42 49.23C330.327 49.2643 330.229 49.2845 330.13 49.29H330.08ZM422 48C421.883 48.0009 421.767 47.977 421.66 47.93C420.16 47.38 418.6 46.85 417.03 46.35C416.895 46.3198 416.767 46.2619 416.655 46.1798C416.544 46.0978 416.45 45.9934 416.381 45.8733C416.312 45.7532 416.268 45.62 416.253 45.4822C416.238 45.3444 416.252 45.205 416.294 45.0728C416.336 44.9406 416.404 44.8185 416.496 44.7143C416.587 44.6101 416.699 44.5261 416.825 44.4675C416.951 44.409 417.087 44.3772 417.226 44.3741C417.364 44.3711 417.502 44.3969 417.63 44.45C419.23 44.96 420.82 45.5 422.35 46.06C422.599 46.1405 422.807 46.3154 422.928 46.5473C423.05 46.7791 423.075 47.0493 423 47.3C422.934 47.5107 422.8 47.6936 422.619 47.8203C422.438 47.9469 422.221 48.0101 422 48ZM339.52 46.3C339.389 46.3184 339.255 46.3107 339.127 46.2774C338.998 46.2442 338.878 46.1859 338.772 46.1061C338.666 46.0262 338.577 45.9263 338.51 45.812C338.442 45.6977 338.398 45.5713 338.38 45.44C338.362 45.3087 338.369 45.175 338.403 45.0466C338.436 44.9183 338.494 44.7977 338.574 44.6919C338.654 44.586 338.754 44.4969 338.868 44.4297C338.982 44.3624 339.109 44.3184 339.24 44.3C340.81 43.85 342.43 43.42 344.04 43.01C344.293 42.9577 344.557 43.0054 344.775 43.1432C344.994 43.281 345.151 43.4982 345.213 43.7491C345.275 44 345.238 44.2653 345.108 44.4892C344.979 44.7131 344.768 44.8782 344.52 44.95C342.93 45.35 341.34 45.78 339.79 46.22C339.706 46.2469 339.618 46.2604 339.53 46.26L339.52 46.3ZM412.61 45C412.524 45.0104 412.436 45.0104 412.35 45C410.8 44.58 409.21 44.18 407.6 43.81C407.335 43.7516 407.104 43.5903 406.957 43.3615C406.811 43.1327 406.762 42.8552 406.82 42.59C406.878 42.3248 407.04 42.0936 407.268 41.9473C407.497 41.801 407.775 41.7516 408.04 41.81C409.68 42.19 411.3 42.59 412.87 43.02C413.135 43.0545 413.376 43.1929 413.539 43.4048C413.702 43.6167 413.774 43.8848 413.74 44.15C413.705 44.4152 413.567 44.6559 413.355 44.819C413.143 44.9822 412.875 45.0545 412.61 45.02V45ZM349.1 43.86C348.835 43.8878 348.569 43.8092 348.362 43.6413C348.155 43.4735 348.023 43.2302 347.995 42.965C347.967 42.6998 348.046 42.4343 348.214 42.2271C348.381 42.0199 348.625 41.8878 348.89 41.86C350.5 41.51 352.14 41.19 353.75 40.86C353.881 40.8363 354.016 40.8388 354.146 40.8672C354.277 40.8956 354.4 40.9494 354.51 41.0256C354.619 41.1017 354.713 41.1987 354.785 41.311C354.857 41.4233 354.906 41.5487 354.93 41.68C354.954 41.8113 354.951 41.946 354.923 42.0764C354.894 42.2067 354.84 42.3302 354.764 42.4398C354.688 42.5494 354.591 42.6429 354.479 42.715C354.367 42.7871 354.241 42.8363 354.11 42.86C352.52 43.15 350.9 43.47 349.31 43.86H349.1ZM403 42.78H402.81C401.24 42.48 399.61 42.21 397.98 41.98C397.85 41.9604 397.725 41.9154 397.612 41.8475C397.5 41.7796 397.401 41.6902 397.323 41.5843C397.245 41.4784 397.189 41.3581 397.158 41.2304C397.126 41.1027 397.12 40.97 397.14 40.84C397.18 40.5793 397.32 40.3447 397.532 40.1874C397.744 40.0301 398.009 39.9627 398.27 40C399.93 40.24 401.58 40.51 403.18 40.81C403.445 40.8338 403.69 40.9621 403.861 41.1665C404.031 41.3709 404.114 41.6348 404.09 41.9C404.066 42.1652 403.938 42.4101 403.733 42.5807C403.529 42.7514 403.265 42.8338 403 42.81V42.78ZM358.8 42.1C358.535 42.1199 358.272 42.0336 358.071 41.8601C357.869 41.6866 357.745 41.4402 357.725 41.175C357.705 40.9098 357.791 40.6475 357.965 40.4459C358.138 40.2443 358.385 40.1199 358.65 40.1C360.29 39.86 361.95 39.65 363.58 39.47C363.711 39.4555 363.844 39.4671 363.971 39.504C364.098 39.5409 364.216 39.6024 364.319 39.6851C364.422 39.7677 364.508 39.8699 364.572 39.9857C364.635 40.1015 364.676 40.2287 364.69 40.36C364.704 40.4913 364.693 40.6242 364.656 40.751C364.619 40.8779 364.557 40.9962 364.475 41.0993C364.392 41.2024 364.29 41.2882 364.174 41.3518C364.058 41.4154 363.931 41.4555 363.8 41.47C362.19 41.65 360.56 41.86 358.94 42.1H358.8ZM393.22 41.36H393.12C391.52 41.19 389.88 41.05 388.24 40.94C388.109 40.9311 387.98 40.8963 387.862 40.8377C387.744 40.7791 387.639 40.6977 387.553 40.5983C387.466 40.4988 387.4 40.3833 387.359 40.2583C387.317 40.1333 387.3 40.0014 387.31 39.87C387.319 39.7385 387.354 39.6102 387.412 39.4922C387.471 39.3742 387.552 39.269 387.652 39.1826C387.751 39.0962 387.867 39.0303 387.992 38.9886C388.117 38.947 388.249 38.9305 388.38 38.94C390.05 39.06 391.71 39.2 393.33 39.38C393.461 39.3937 393.587 39.433 393.703 39.4958C393.818 39.5585 393.92 39.6434 394.003 39.7455C394.086 39.8477 394.147 39.9651 394.185 40.0911C394.222 40.2172 394.234 40.3493 394.22 40.48C394.19 40.7239 394.072 40.9484 393.888 41.1107C393.703 41.273 393.466 41.3618 393.22 41.36ZM368.59 41C368.338 41.0008 368.095 40.9065 367.91 40.7359C367.724 40.5653 367.61 40.3311 367.59 40.08C367.579 39.9486 367.594 39.8163 367.635 39.6908C367.675 39.5653 367.74 39.449 367.825 39.3486C367.911 39.2482 368.015 39.1657 368.133 39.1059C368.25 39.0461 368.378 39.0101 368.51 39C370.17 38.88 371.83 38.78 373.51 38.71C373.775 38.71 374.03 38.8153 374.217 39.0029C374.405 39.1904 374.51 39.4448 374.51 39.71C374.51 39.9752 374.405 40.2295 374.217 40.4171C374.03 40.6046 373.775 40.71 373.51 40.71C371.9 40.78 370.25 40.88 368.62 41H368.59ZM383.38 40.67C381.95 40.67 380.51 40.6 379.1 40.6H378.48C378.215 40.6 377.96 40.4946 377.773 40.3071C377.585 40.1195 377.48 39.8652 377.48 39.6C377.48 39.3348 377.585 39.0804 377.773 38.8929C377.96 38.7053 378.215 38.6 378.48 38.6H379.11C380.54 38.6 382 38.6 383.45 38.67C383.715 38.67 383.97 38.7753 384.157 38.9629C384.345 39.1504 384.45 39.4048 384.45 39.67C384.45 39.9352 384.345 40.1895 384.157 40.3771C383.97 40.5646 383.715 40.67 383.45 40.67H383.38Z" fill="#E0E0E0"/>
<path d="M323.11 52C322.88 51.9973 322.659 51.9157 322.482 51.769C322.306 51.6223 322.185 51.4193 322.141 51.1942C322.096 50.969 322.13 50.7354 322.238 50.5325C322.345 50.3297 322.519 50.1699 322.73 50.08L325.06 49.08C325.183 49.0315 325.314 49.0078 325.446 49.0103C325.578 49.0128 325.708 49.0413 325.829 49.0943C325.949 49.1473 326.059 49.2237 326.15 49.319C326.241 49.4144 326.312 49.5269 326.36 49.65C326.408 49.7727 326.432 49.9038 326.43 50.0357C326.427 50.1677 326.399 50.2978 326.346 50.4186C326.293 50.5395 326.216 50.6486 326.121 50.7398C326.026 50.831 325.913 50.9024 325.79 50.95L323.49 51.88C323.372 51.9436 323.243 51.9843 323.11 52Z" fill="#E0E0E0"/>
<path d="M100.44 143.16L146.43 120.62L113.27 152.16L100.44 143.16Z" fill="#25D366"/>
<path d="M146.43 120.62L95.72 137.3L82.91 128.3L146.43 120.62Z" fill="#25D366"/>
<path d="M95.72 137.3L97.73 150.18L100.44 143.16L146.43 120.62L95.72 137.3Z" fill="#25D366"/>
<path opacity="0.25" d="M95.72 137.3L97.73 150.18L100.44 143.16L146.43 120.62L95.72 137.3Z" fill="black"/>
<path d="M97.73 150.18L104.72 146.16L100.44 143.16L97.73 150.18Z" fill="#25D366"/>
<path opacity="0.25" d="M100.44 143.16L104.72 146.16L103.6 146.8L100.44 143.16Z" fill="black"/>
<path d="M103.9 278.13C103.784 278.13 103.669 278.11 103.56 278.07C101.94 277.49 100.36 276.89 98.85 276.3C98.6033 276.202 98.4058 276.01 98.3007 275.766C98.1957 275.522 98.1918 275.247 98.29 275C98.3881 274.753 98.5802 274.556 98.824 274.451C99.0678 274.346 99.3433 274.342 99.59 274.44C101.07 275.02 102.59 275.61 104.24 276.19C104.461 276.27 104.647 276.426 104.764 276.629C104.882 276.833 104.924 277.071 104.884 277.303C104.843 277.534 104.722 277.744 104.542 277.895C104.363 278.047 104.135 278.13 103.9 278.13ZM94.61 274.44C94.4726 274.441 94.3364 274.414 94.21 274.36C92.65 273.67 91.12 272.96 89.64 272.24C89.4013 272.123 89.2187 271.917 89.1325 271.665C89.0462 271.414 89.0633 271.139 89.18 270.9C89.2967 270.661 89.5034 270.479 89.7547 270.393C90.006 270.306 90.2813 270.323 90.52 270.44C91.97 271.15 93.52 271.85 95.02 272.53C95.2274 272.625 95.3964 272.787 95.4988 272.991C95.6012 273.194 95.631 273.427 95.5831 273.65C95.5353 273.873 95.4127 274.073 95.2357 274.216C95.0587 274.36 94.838 274.439 94.61 274.44ZM85.61 270.04C85.4425 270.041 85.2774 270 85.13 269.92C83.64 269.1 82.13 268.25 80.76 267.38C80.5789 267.228 80.4575 267.017 80.4174 266.784C80.3773 266.551 80.4211 266.311 80.541 266.107C80.6609 265.903 80.8491 265.749 81.0723 265.67C81.2954 265.592 81.5391 265.596 81.76 265.68C83.14 266.53 84.58 267.36 86.04 268.16C86.2362 268.266 86.3915 268.434 86.481 268.639C86.5705 268.843 86.5891 269.071 86.5339 269.287C86.4788 269.503 86.3529 269.695 86.1765 269.831C86 269.968 85.783 270.041 85.56 270.04H85.61ZM77.11 264.79C76.9061 264.79 76.7072 264.727 76.54 264.61C75.14 263.61 73.78 262.61 72.48 261.61C72.2665 261.439 72.1297 261.19 72.0997 260.918C72.0697 260.646 72.1489 260.374 72.32 260.16C72.491 259.947 72.7399 259.81 73.0118 259.78C73.2838 259.75 73.5565 259.829 73.77 260C75.03 261 76.36 262 77.77 262.94C77.9443 263.062 78.0753 263.236 78.144 263.437C78.2127 263.638 78.2154 263.856 78.1519 264.059C78.0884 264.262 77.9618 264.439 77.7906 264.565C77.6195 264.691 77.4126 264.76 77.2 264.76L77.11 264.79ZM69.3 258.57C69.0521 258.569 68.8134 258.477 68.63 258.31C67.37 257.16 66.16 255.97 65.02 254.75C64.86 254.554 64.7801 254.305 64.7963 254.053C64.8126 253.801 64.9237 253.564 65.1075 253.39C65.2912 253.217 65.5339 253.119 65.7867 253.117C66.0395 253.115 66.2836 253.209 66.47 253.38C67.58 254.56 68.76 255.72 69.98 256.83C70.1298 256.966 70.2348 257.145 70.281 257.342C70.3272 257.539 70.3125 257.745 70.2388 257.934C70.1651 258.123 70.0359 258.284 69.8682 258.398C69.7006 258.512 69.5025 258.572 69.3 258.57ZM62.46 251.31C62.3098 251.309 62.1617 251.275 62.0266 251.209C61.8916 251.143 61.7731 251.048 61.68 250.93C60.62 249.62 59.61 248.25 58.68 246.85C58.6064 246.741 58.5551 246.619 58.5289 246.49C58.5026 246.361 58.502 246.228 58.5271 246.099C58.5522 245.97 58.6024 245.847 58.675 245.738C58.7475 245.628 58.841 245.534 58.95 245.46C59.059 245.386 59.1814 245.335 59.3102 245.309C59.4391 245.283 59.5718 245.282 59.7009 245.307C59.83 245.332 59.9528 245.382 60.0625 245.455C60.1721 245.528 60.2664 245.621 60.34 245.73C61.25 247.08 62.24 248.41 63.26 249.73C63.4246 249.936 63.5012 250.199 63.4731 250.461C63.445 250.723 63.3145 250.964 63.11 251.13C62.9317 251.255 62.7175 251.318 62.5 251.31H62.46ZM56.86 243.05C56.6828 243.05 56.5088 243.002 56.356 242.913C56.2031 242.823 56.0768 242.694 55.99 242.54C55.17 241.08 54.39 239.54 53.68 238.02C53.6248 237.901 53.5937 237.771 53.5885 237.64C53.5833 237.508 53.604 237.377 53.6495 237.254C53.695 237.13 53.7644 237.017 53.8537 236.92C53.943 236.823 54.0505 236.745 54.17 236.69C54.2895 236.635 54.4187 236.604 54.5502 236.599C54.6817 236.593 54.813 236.614 54.9365 236.66C55.1859 236.751 55.3886 236.939 55.5 237.18C56.18 238.67 56.94 240.18 57.73 241.55C57.7957 241.665 57.838 241.791 57.8545 241.923C57.8709 242.054 57.8612 242.187 57.8259 242.314C57.7905 242.442 57.7303 242.561 57.6486 242.665C57.5669 242.769 57.4654 242.856 57.35 242.92C57.2117 242.997 57.0579 243.041 56.9 243.05H56.86ZM52.72 234C52.5157 234.001 52.316 233.939 52.148 233.823C51.9799 233.706 51.8515 233.541 51.78 233.35C51.2 231.79 50.67 230.17 50.2 228.53C50.1558 228.402 50.1382 228.266 50.1482 228.13C50.1583 227.995 50.1958 227.863 50.2585 227.743C50.3212 227.622 50.4078 227.516 50.5129 227.43C50.6181 227.344 50.7396 227.28 50.8701 227.243C51.0006 227.206 51.1374 227.195 51.272 227.212C51.4067 227.23 51.5364 227.274 51.6534 227.343C51.7703 227.412 51.872 227.504 51.9522 227.613C52.0324 227.723 52.0895 227.848 52.12 227.98C52.58 229.57 53.12 231.14 53.65 232.66C53.7405 232.908 53.7293 233.182 53.6188 233.422C53.5083 233.661 53.3074 233.848 53.06 233.94C52.951 233.98 52.8359 234 52.72 234ZM49.93 224.41C49.6974 224.415 49.4704 224.339 49.2878 224.195C49.1053 224.051 48.9788 223.847 48.93 223.62C48.58 222.01 48.26 220.34 48 218.62C47.9597 218.359 48.0243 218.092 48.1798 217.879C48.3354 217.665 48.5691 217.522 48.83 217.48C48.96 217.459 49.093 217.463 49.2213 217.493C49.3496 217.524 49.4707 217.579 49.5776 217.656C49.6844 217.733 49.775 217.831 49.8441 217.943C49.9131 218.055 49.9593 218.18 49.98 218.31C50.23 219.96 50.54 221.59 50.88 223.17C50.9366 223.429 50.8883 223.699 50.7459 223.922C50.6034 224.145 50.3783 224.303 50.12 224.36C50.058 224.377 49.9943 224.388 49.93 224.39V224.41ZM48.37 214.54C48.1212 214.541 47.8809 214.45 47.696 214.283C47.5111 214.117 47.3948 213.888 47.37 213.64C47.2 212.03 47.06 210.34 46.96 208.64C46.9463 208.376 47.0375 208.118 47.2136 207.921C47.3897 207.725 47.6364 207.606 47.9 207.59C48.0314 207.582 48.163 207.6 48.2875 207.643C48.4119 207.686 48.5267 207.753 48.6252 207.84C48.7236 207.927 48.8039 208.033 48.8614 208.152C48.9188 208.27 48.9523 208.399 48.96 208.53C49.06 210.22 49.19 211.88 49.36 213.47C49.3852 213.732 49.3058 213.994 49.1391 214.198C48.9725 214.402 48.732 214.532 48.47 214.56L48.37 214.54ZM47.85 204.54C47.5848 204.54 47.3304 204.435 47.1429 204.247C46.9553 204.06 46.85 203.805 46.85 203.54C46.85 201.86 46.98 200.15 47.15 198.47C47.1625 198.338 47.2009 198.211 47.2631 198.094C47.3253 197.977 47.41 197.874 47.5123 197.791C47.6145 197.707 47.7324 197.644 47.859 197.606C47.9857 197.569 48.1185 197.556 48.25 197.57C48.3807 197.584 48.5074 197.623 48.6228 197.686C48.7383 197.749 48.8403 197.833 48.923 197.936C49.0056 198.038 49.0673 198.155 49.1046 198.281C49.1418 198.407 49.1538 198.539 49.14 198.67C48.98 200.3 48.88 201.95 48.85 203.58C48.8396 203.838 48.7297 204.082 48.5433 204.261C48.3569 204.44 48.1084 204.54 47.85 204.54ZM48.85 194.6H48.67C48.4105 194.551 48.1808 194.402 48.031 194.185C47.8811 193.968 47.8232 193.7 47.87 193.44C48.17 191.78 48.55 190.12 48.98 188.44C49.0147 188.313 49.0741 188.195 49.1547 188.091C49.2353 187.987 49.3356 187.9 49.4499 187.835C49.5641 187.77 49.69 187.728 49.8205 187.712C49.9509 187.696 50.0832 187.705 50.21 187.74C50.4638 187.81 50.6797 187.978 50.8107 188.206C50.9418 188.435 50.9774 188.705 50.91 188.96C50.49 190.54 50.13 192.16 49.83 193.76C49.7922 193.993 49.673 194.206 49.4936 194.359C49.3143 194.513 49.0862 194.598 48.85 194.6ZM51.43 185C51.3174 184.999 51.2058 184.978 51.1 184.94C50.9757 184.896 50.8612 184.828 50.7632 184.74C50.6652 184.652 50.5856 184.546 50.5289 184.427C50.4722 184.308 50.4396 184.179 50.4329 184.047C50.4262 183.916 50.4456 183.784 50.49 183.66C51.05 182.08 51.68 180.49 52.37 178.94C52.4183 178.812 52.4922 178.696 52.5872 178.598C52.6822 178.5 52.7963 178.422 52.9224 178.37C53.0485 178.318 53.184 178.292 53.3205 178.294C53.457 178.296 53.5916 178.326 53.7161 178.382C53.8405 178.438 53.9522 178.519 54.0442 178.62C54.1362 178.721 54.2065 178.84 54.2509 178.969C54.2953 179.098 54.3128 179.235 54.3023 179.371C54.2919 179.507 54.2536 179.639 54.19 179.76C53.53 181.25 52.91 182.76 52.37 184.33C52.3018 184.525 52.1747 184.694 52.0064 184.814C51.8381 184.934 51.6367 184.999 51.43 185ZM55.49 175.87C55.317 175.869 55.1473 175.823 54.9975 175.736C54.8477 175.65 54.7228 175.526 54.6351 175.377C54.5475 175.228 54.5 175.058 54.4973 174.885C54.4947 174.712 54.5369 174.542 54.62 174.39C55.42 172.91 56.3 171.39 57.22 170.03C57.3734 169.83 57.5967 169.695 57.8452 169.653C58.0936 169.61 58.349 169.663 58.5601 169.801C58.7712 169.939 58.9225 170.151 58.9837 170.396C59.0448 170.64 59.0114 170.899 58.89 171.12C58 172.49 57.15 173.91 56.37 175.35C56.2773 175.499 56.1472 175.62 55.9928 175.703C55.8383 175.785 55.665 175.826 55.49 175.82V175.87ZM61 167.45C60.8134 167.45 60.6307 167.397 60.4725 167.298C60.3142 167.199 60.1868 167.058 60.1046 166.891C60.0224 166.723 59.9887 166.536 60.0074 166.35C60.026 166.165 60.0962 165.988 60.21 165.84C61.21 164.5 62.34 163.19 63.47 161.95C63.5586 161.853 63.6655 161.774 63.7846 161.718C63.9037 161.662 64.0326 161.631 64.164 161.624C64.2954 161.618 64.4267 161.638 64.5504 161.683C64.6741 161.728 64.7878 161.796 64.885 161.885C64.9822 161.974 65.0609 162.081 65.1168 162.2C65.1726 162.319 65.2045 162.448 65.2105 162.579C65.2166 162.71 65.1967 162.842 65.152 162.965C65.1073 163.089 65.0386 163.203 64.95 163.3C63.86 164.5 62.79 165.77 61.79 167.06C61.6968 167.181 61.5772 167.279 61.4402 167.347C61.3033 167.414 61.1527 167.45 61 167.45ZM67.73 160.07C67.5297 160.069 67.3342 160.009 67.1689 159.895C67.0036 159.782 66.876 159.622 66.8027 159.436C66.7295 159.249 66.7139 159.045 66.7579 158.85C66.802 158.655 66.9038 158.477 67.05 158.34C68.28 157.18 69.58 156.07 70.9 155.03C71.1072 154.867 71.3707 154.792 71.6329 154.822C71.8952 154.852 72.135 154.984 72.3 155.19C72.3825 155.293 72.4438 155.411 72.4805 155.538C72.5171 155.665 72.5283 155.797 72.5134 155.928C72.4985 156.059 72.4579 156.186 72.3938 156.301C72.3297 156.417 72.2434 156.518 72.14 156.6C70.86 157.6 69.61 158.68 68.41 159.8C68.3125 159.892 68.1977 159.963 68.0723 160.009C67.9469 160.055 67.8135 160.076 67.68 160.07H67.73ZM75.57 153.88C75.3386 153.905 75.1059 153.848 74.912 153.719C74.718 153.591 74.575 153.398 74.5075 153.176C74.44 152.953 74.4522 152.714 74.5421 152.499C74.632 152.285 74.7939 152.108 75 152C76.4 151.07 77.86 150.19 79.34 149.37C79.4549 149.304 79.5816 149.262 79.7129 149.245C79.8442 149.229 79.9775 149.238 80.1051 149.273C80.2328 149.308 80.3524 149.367 80.457 149.448C80.5617 149.529 80.6493 149.63 80.715 149.745C80.7806 149.86 80.823 149.987 80.8397 150.118C80.8564 150.249 80.8471 150.383 80.8122 150.51C80.7774 150.638 80.7178 150.757 80.6368 150.862C80.5557 150.967 80.4549 151.054 80.34 151.12C78.91 151.91 77.49 152.77 76.14 153.67C75.9627 153.808 75.7443 153.882 75.52 153.88H75.57ZM84.25 149C84.022 148.999 83.8012 148.92 83.6242 148.776C83.4473 148.633 83.3247 148.433 83.2768 148.21C83.229 147.987 83.2587 147.754 83.3612 147.551C83.4636 147.347 83.6325 147.185 83.84 147.09C85.37 146.4 86.95 145.75 88.54 145.18C88.7872 145.098 89.0565 145.116 89.2906 145.23C89.5247 145.344 89.7052 145.545 89.7938 145.79C89.8823 146.034 89.8719 146.304 89.7647 146.541C89.6576 146.778 89.4622 146.965 89.22 147.06C87.68 147.62 86.15 148.24 84.66 148.91C84.5312 148.969 84.3915 148.999 84.25 149Z" fill="#E0E0E0"/>
<path d="M335 415.38C335.002 415.198 334.955 415.02 334.863 414.863C334.772 414.706 334.639 414.577 334.48 414.49C333.85 414.014 333.068 413.783 332.28 413.84C331.473 413.842 330.679 414.034 329.96 414.4L325.96 416.53C326.287 415.957 326.532 415.341 326.69 414.7C326.803 414.208 326.857 413.705 326.85 413.2C326.85 412.36 326.85 407.7 326.85 407.26C326.84 406.309 326.635 405.37 326.25 404.5C325.425 402.864 324.192 401.469 322.67 400.45C321.44 399.51 319.97 398.45 318.24 397.34C316.51 396.23 314.95 395.26 313.54 394.47C309.779 392.465 305.809 390.882 301.7 389.75C297.238 388.527 292.626 387.938 288 388C282.742 388.094 277.515 388.84 272.44 390.22C266.385 391.871 260.543 394.22 255.03 397.22C249.81 399.98 245.873 402.85 243.22 405.83C240.842 408.275 239.173 411.32 238.39 414.64C238.214 415.515 238.13 416.407 238.14 417.3C238.14 418.3 238.14 422.49 238.14 423.3C238.152 425.327 238.638 427.324 239.56 429.13C241.052 431.998 243.171 434.493 245.76 436.43C246.35 436.89 247.2 437.5 248.32 438.27C249.44 439.04 250.63 439.84 251.91 440.67C253.19 441.5 254.41 442.3 255.62 443.05C256.83 443.8 257.8 444.39 258.56 444.82C262.321 446.78 266.316 448.252 270.45 449.2C275.038 450.272 279.739 450.789 284.45 450.74C289.567 450.692 294.662 450.047 299.63 448.82C308.908 446.391 317.633 442.202 325.33 436.48C327.475 434.854 329.425 432.985 331.14 430.91C332.361 429.449 333.306 427.779 333.93 425.98C334.388 424.551 334.739 423.091 334.98 421.61C334.984 421.547 334.984 421.483 334.98 421.42C335 421.14 335 415.44 335 415.38ZM320 422.56C319.325 423.504 318.555 424.375 317.7 425.16C316.48 426.255 315.179 427.258 313.81 428.16C311.844 429.456 309.811 430.647 307.72 431.73C304.371 433.53 300.82 434.923 297.14 435.88C293.695 436.78 290.159 437.287 286.6 437.39C283.243 437.486 279.887 437.187 276.6 436.5C273.507 435.866 270.508 434.834 267.68 433.43C266.676 432.936 265.701 432.385 264.76 431.78C263.63 431.08 262.48 430.35 261.31 429.58C260.14 428.81 259.03 428.07 257.99 427.35C257.163 426.802 256.374 426.197 255.63 425.54C253.781 424.026 252.3 422.111 251.3 419.94C251.21 419.71 251.12 419.49 251.04 419.26C251.789 417.307 252.953 415.54 254.45 414.08C256.837 411.751 259.569 409.805 262.55 408.31C266.315 406.279 270.263 404.605 274.34 403.31C276.307 402.701 278.311 402.22 280.34 401.87L279.34 402.42C279.064 402.531 278.819 402.708 278.626 402.934C278.433 403.16 278.297 403.43 278.23 403.72C278.199 403.984 278.249 404.251 278.374 404.485C278.5 404.719 278.693 404.909 278.93 405.03L279.61 405.47C277.84 405.25 276.05 405.25 274.28 405.47C272.024 405.844 269.852 406.619 267.87 407.76C265.972 408.665 264.311 410 263.02 411.66C262.172 412.766 261.702 414.116 261.68 415.51C261.68 415.7 261.68 420.63 261.68 421.65C261.67 421.836 261.67 422.023 261.68 422.21C261.899 423.913 262.592 425.521 263.68 426.85C265.169 428.668 266.95 430.226 268.95 431.46C271.212 432.954 273.66 434.147 276.23 435.01C278.75 435.863 281.367 436.397 284.02 436.6C286.604 436.803 289.203 436.661 291.75 436.18C294.232 435.717 296.629 434.881 298.86 433.7C300.377 432.933 301.817 432.023 303.16 430.98C303.999 430.331 304.731 429.555 305.33 428.68C305.724 428.08 305.968 427.394 306.04 426.68C306.09 426.07 306.09 425.47 306.04 424.89C308.08 424.978 310.123 424.834 312.13 424.46C314.936 423.882 317.635 422.87 320.13 421.46L320.59 421.19C320.503 421.677 320.307 422.133 320 422.56ZM284.31 416.67C286.961 417.042 289.49 418.021 291.7 419.53C292.489 420.041 293.235 420.617 293.93 421.25C293.555 421.513 293.164 421.754 292.76 421.97C290.653 423.083 288.254 423.519 285.89 423.22C283.235 422.879 280.699 421.912 278.49 420.4C277.673 419.883 276.91 419.287 276.21 418.62C276.542 418.373 276.893 418.152 277.26 417.96C279.424 416.79 281.903 416.339 284.34 416.67H284.31ZM312.18 410.74C311.047 411.228 309.833 411.5 308.6 411.54C307.134 411.629 305.677 411.251 304.44 410.46L290.9 401.59C292.263 401.743 293.615 401.977 294.95 402.29C298.253 403.087 301.446 404.282 304.46 405.85C305.976 406.635 307.451 407.496 308.88 408.43C310.1 409.21 311.18 410 312.21 410.74H312.18Z" fill="#25D366"/>
<path opacity="0.2" d="M335 415.38C335.002 415.198 334.955 415.02 334.863 414.863C334.772 414.706 334.639 414.577 334.48 414.49C333.85 414.014 333.068 413.783 332.28 413.84C331.473 413.842 330.679 414.034 329.96 414.4L325.96 416.53C326.287 415.957 326.532 415.341 326.69 414.7C326.803 414.208 326.857 413.705 326.85 413.2C326.85 412.36 326.85 407.7 326.85 407.26C326.84 406.309 326.635 405.37 326.25 404.5C325.425 402.864 324.192 401.469 322.67 400.45C321.44 399.51 319.97 398.45 318.24 397.34C316.51 396.23 314.95 395.26 313.54 394.47C309.779 392.465 305.809 390.882 301.7 389.75C297.238 388.527 292.626 387.938 288 388C282.742 388.094 277.515 388.84 272.44 390.22C266.385 391.871 260.543 394.22 255.03 397.22C249.81 399.98 245.873 402.85 243.22 405.83C240.842 408.275 239.173 411.32 238.39 414.64C238.214 415.515 238.13 416.407 238.14 417.3C238.14 418.3 238.14 422.49 238.14 423.3C238.152 425.327 238.638 427.324 239.56 429.13C241.052 431.998 243.171 434.493 245.76 436.43C246.35 436.89 247.2 437.5 248.32 438.27C249.44 439.04 250.63 439.84 251.91 440.67C253.19 441.5 254.41 442.3 255.62 443.05C256.83 443.8 257.8 444.39 258.56 444.82C262.321 446.78 266.316 448.252 270.45 449.2C275.038 450.272 279.739 450.789 284.45 450.74C289.567 450.692 294.662 450.047 299.63 448.82C308.908 446.391 317.633 442.202 325.33 436.48C327.475 434.854 329.425 432.985 331.14 430.91C332.361 429.449 333.306 427.779 333.93 425.98C334.388 424.551 334.739 423.091 334.98 421.61C334.984 421.547 334.984 421.483 334.98 421.42C335 421.14 335 415.44 335 415.38ZM320 422.56C319.325 423.504 318.555 424.375 317.7 425.16C316.48 426.255 315.179 427.258 313.81 428.16C311.844 429.456 309.811 430.647 307.72 431.73C304.371 433.53 300.82 434.923 297.14 435.88C293.695 436.78 290.159 437.287 286.6 437.39C283.243 437.486 279.887 437.187 276.6 436.5C273.507 435.866 270.508 434.834 267.68 433.43C266.676 432.936 265.701 432.385 264.76 431.78C263.63 431.08 262.48 430.35 261.31 429.58C260.14 428.81 259.03 428.07 257.99 427.35C257.163 426.802 256.374 426.197 255.63 425.54C253.781 424.026 252.3 422.111 251.3 419.94C251.21 419.71 251.12 419.49 251.04 419.26C251.789 417.307 252.953 415.54 254.45 414.08C256.837 411.751 259.569 409.805 262.55 408.31C266.315 406.279 270.263 404.605 274.34 403.31C276.307 402.701 278.311 402.22 280.34 401.87L279.34 402.42C279.064 402.531 278.819 402.708 278.626 402.934C278.433 403.16 278.297 403.43 278.23 403.72C278.199 403.984 278.249 404.251 278.374 404.485C278.5 404.719 278.693 404.909 278.93 405.03L279.61 405.47C277.84 405.25 276.05 405.25 274.28 405.47C272.024 405.844 269.852 406.619 267.87 407.76C265.972 408.665 264.311 410 263.02 411.66C262.172 412.766 261.702 414.116 261.68 415.51C261.68 415.7 261.68 420.63 261.68 421.65C261.67 421.836 261.67 422.023 261.68 422.21C261.899 423.913 262.592 425.521 263.68 426.85C265.169 428.668 266.95 430.226 268.95 431.46C271.212 432.954 273.66 434.147 276.23 435.01C278.75 435.863 281.367 436.397 284.02 436.6C286.604 436.803 289.203 436.661 291.75 436.18C294.232 435.717 296.629 434.881 298.86 433.7C300.377 432.933 301.817 432.023 303.16 430.98C303.999 430.331 304.731 429.555 305.33 428.68C305.724 428.08 305.968 427.394 306.04 426.68C306.09 426.07 306.09 425.47 306.04 424.89C308.08 424.978 310.123 424.834 312.13 424.46C314.936 423.882 317.635 422.87 320.13 421.46L320.59 421.19C320.503 421.677 320.307 422.133 320 422.56ZM284.31 416.67C286.961 417.042 289.49 418.021 291.7 419.53C292.489 420.041 293.235 420.617 293.93 421.25C293.555 421.513 293.164 421.754 292.76 421.97C290.653 423.083 288.254 423.519 285.89 423.22C283.235 422.879 280.699 421.912 278.49 420.4C277.673 419.883 276.91 419.287 276.21 418.62C276.542 418.373 276.893 418.152 277.26 417.96C279.424 416.79 281.903 416.339 284.34 416.67H284.31ZM312.18 410.74C311.047 411.228 309.833 411.5 308.6 411.54C307.134 411.629 305.677 411.251 304.44 410.46L290.9 401.59C292.263 401.743 293.615 401.977 294.95 402.29C298.253 403.087 301.446 404.282 304.46 405.85C305.976 406.635 307.451 407.496 308.88 408.43C310.1 409.21 311.18 410 312.21 410.74H312.18Z" fill="black"/>
<path opacity="0.1" d="M251.11 419.3C251.86 417.347 253.023 415.58 254.52 414.12C256.907 411.791 259.639 409.845 262.62 408.35C266.385 406.319 270.333 404.645 274.41 403.35C276.377 402.741 278.381 402.26 280.41 401.91L284.05 399.98C284.765 399.617 285.559 399.442 286.36 399.47C287.111 399.445 287.854 399.636 288.5 400.02L290.9 401.59C292.263 401.743 293.615 401.977 294.95 402.29C298.253 403.087 301.446 404.282 304.46 405.85C305.976 406.635 307.451 407.496 308.88 408.43C310.07 409.21 311.15 409.98 312.18 410.74C312.379 410.665 312.572 410.579 312.76 410.48C313.258 410.277 313.704 409.965 314.066 409.567C314.428 409.169 314.696 408.695 314.85 408.18C315.05 407.28 314.41 406.27 312.93 405.18C311.7 404.24 310.35 403.28 308.93 402.32C307.506 401.379 306.03 400.517 304.51 399.74C301.5 398.164 298.305 396.968 295 396.18C291.754 395.405 288.413 395.099 285.08 395.27C281.46 395.489 277.883 396.161 274.43 397.27C270.353 398.566 266.406 400.24 262.64 402.27C259.658 403.758 256.925 405.702 254.54 408.03C252.816 409.676 251.555 411.744 250.88 414.03C250.369 416.03 250.549 418.145 251.39 420.03C251.28 419.75 251.19 419.53 251.11 419.3Z" fill="black"/>
<path opacity="0.1" d="M291.73 413.4C289.52 411.888 286.991 410.906 284.34 410.53C281.928 410.219 279.48 410.674 277.34 411.83C275.24 412.94 274.34 414.24 274.55 415.74C274.802 416.868 275.417 417.883 276.3 418.63C276.634 418.385 276.985 418.164 277.35 417.97C279.49 416.817 281.939 416.366 284.35 416.68C287.001 417.052 289.53 418.031 291.74 419.54C292.529 420.051 293.275 420.627 293.97 421.26L293.44 421.61C295.2 420.53 295.987 419.34 295.8 418.04C295.57 416.58 294.23 415 291.73 413.4Z" fill="black"/>
<path opacity="0.1" d="M284.16 430.54C278.785 430.116 273.603 428.349 269.09 425.4C267.087 424.166 265.305 422.604 263.82 420.78C262.733 419.455 262.04 417.85 261.82 416.15C261.8 415.854 261.8 415.556 261.82 415.26C261.82 415.37 261.82 415.47 261.82 415.58C261.82 415.69 261.82 420.7 261.82 421.72C261.81 421.907 261.81 422.093 261.82 422.28C262.04 423.983 262.732 425.591 263.82 426.92C265.309 428.738 267.09 430.296 269.09 431.53C271.352 433.024 273.8 434.217 276.37 435.08C278.89 435.933 281.507 436.467 284.16 436.67V430.54Z" fill="black"/>
<path opacity="0.1" d="M306.22 418.84C306.22 419.43 306.22 420.02 306.22 420.63V424.98C308.26 425.068 310.303 424.924 312.31 424.55V418.41C310.303 418.789 308.26 418.933 306.22 418.84Z" fill="black"/>
<path opacity="0.1" d="M270.49 443.14C266.355 442.197 262.359 440.725 258.6 438.76C257.84 438.34 256.86 437.76 255.66 437C254.46 436.24 253.22 435.45 251.95 434.62C250.68 433.79 249.48 432.98 248.36 432.22C247.24 431.46 246.36 430.84 245.8 430.38C243.211 428.439 241.092 425.941 239.6 423.07C238.677 421.254 238.194 419.247 238.19 417.21C238.19 417.26 238.19 417.3 238.19 417.35C238.19 418.35 238.19 422.54 238.19 423.35C238.202 425.377 238.689 427.374 239.61 429.18C241.102 432.048 243.221 434.543 245.81 436.48C246.4 436.94 247.25 437.55 248.37 438.32C249.49 439.09 250.68 439.89 251.96 440.72C253.24 441.55 254.46 442.35 255.67 443.1C256.88 443.85 257.85 444.44 258.61 444.87C262.371 446.83 266.366 448.302 270.5 449.25C275.088 450.322 279.789 450.839 284.5 450.79V444.66C279.786 444.716 275.082 444.206 270.49 443.14Z" fill="black"/>
<path d="M322.68 400.45C324.202 401.469 325.435 402.864 326.26 404.5C326.849 405.772 327.004 407.202 326.7 408.57C326.324 409.987 325.583 411.28 324.55 412.32C323.331 413.581 321.912 414.631 320.35 415.43C317.857 416.844 315.158 417.856 312.35 418.43C310.344 418.809 308.3 418.953 306.26 418.86C306.26 419.45 306.26 420.04 306.26 420.65C306.191 421.365 305.947 422.052 305.55 422.65C304.953 423.527 304.221 424.303 303.38 424.95C302.038 425.996 300.598 426.911 299.08 427.68C296.847 428.856 294.45 429.692 291.97 430.16C289.423 430.641 286.824 430.783 284.24 430.58C278.865 430.156 273.683 428.389 269.17 425.44C267.167 424.206 265.385 422.644 263.9 420.82C262.813 419.495 262.12 417.89 261.9 416.19C261.77 414.605 262.238 413.029 263.21 411.77C264.501 410.11 266.162 408.775 268.06 407.87C270.042 406.729 272.214 405.954 274.47 405.58C276.24 405.36 278.03 405.36 279.8 405.58L279.12 405.14C278.883 405.019 278.69 404.829 278.564 404.595C278.439 404.361 278.389 404.094 278.42 403.83C278.487 403.54 278.623 403.27 278.816 403.044C279.009 402.818 279.254 402.641 279.53 402.53L284.2 400.05C284.915 399.687 285.709 399.512 286.51 399.54C287.261 399.515 288.004 399.706 288.65 400.09L304.59 410.53C305.827 411.322 307.284 411.701 308.75 411.61C310.199 411.576 311.621 411.213 312.91 410.55C313.408 410.347 313.854 410.035 314.216 409.637C314.578 409.239 314.846 408.765 315 408.25C315.2 407.35 314.56 406.34 313.08 405.25C311.85 404.31 310.5 403.35 309.08 402.39C307.656 401.449 306.18 400.587 304.66 399.81C301.65 398.234 298.455 397.038 295.15 396.25C291.907 395.476 288.57 395.17 285.24 395.34C281.617 395.559 278.036 396.231 274.58 397.34C270.503 398.636 266.556 400.31 262.79 402.34C259.808 403.828 257.075 405.772 254.69 408.1C252.966 409.746 251.705 411.814 251.03 414.1C250.519 416.1 250.699 418.215 251.54 420.1C252.54 422.271 254.021 424.186 255.87 425.7C256.614 426.357 257.403 426.962 258.23 427.51C259.23 428.23 260.38 428.97 261.55 429.74C262.72 430.51 263.87 431.24 265 431.94C265.941 432.545 266.916 433.096 267.92 433.59C270.748 434.994 273.747 436.026 276.84 436.66C280.127 437.347 283.483 437.646 286.84 437.55C290.399 437.447 293.935 436.94 297.38 436.04C301.06 435.083 304.611 433.69 307.96 431.89C310.051 430.807 312.084 429.616 314.05 428.32C315.419 427.418 316.72 426.415 317.94 425.32C319.447 423.966 320.668 422.324 321.53 420.49C321.73 420.004 321.971 419.535 322.25 419.09C322.603 418.659 323.051 418.317 323.56 418.09L330 414.4C330.719 414.034 331.513 413.842 332.32 413.84C333.108 413.783 333.89 414.014 334.52 414.49C334.706 414.592 334.855 414.751 334.945 414.943C335.035 415.136 335.061 415.352 335.02 415.56C334.779 417.041 334.428 418.501 333.97 419.93C333.344 421.728 332.399 423.398 331.18 424.86C329.461 426.929 327.512 428.794 325.37 430.42C322.211 432.813 318.848 434.924 315.32 436.73C310.375 439.377 305.117 441.393 299.67 442.73C294.702 443.96 289.608 444.608 284.49 444.66C279.778 444.705 275.078 444.185 270.49 443.11C266.355 442.167 262.359 440.695 258.6 438.73C257.84 438.31 256.86 437.73 255.66 436.97C254.46 436.21 253.22 435.42 251.95 434.59C250.68 433.76 249.48 432.95 248.36 432.19C247.24 431.43 246.36 430.81 245.8 430.35C243.211 428.409 241.092 425.911 239.6 423.04C238.275 420.459 237.863 417.505 238.43 414.66C239.213 411.34 240.882 408.295 243.26 405.85C245.927 402.87 249.863 400 255.07 397.24C260.583 394.24 266.425 391.891 272.48 390.24C277.541 388.856 282.754 388.104 288 388C292.614 387.927 297.216 388.503 301.67 389.71C305.779 390.842 309.749 392.425 313.51 394.43C314.917 395.217 316.483 396.173 318.21 397.3C320 398.47 321.45 399.51 322.68 400.45ZM278.52 420.4C280.729 421.912 283.265 422.879 285.92 423.22C288.284 423.519 290.683 423.083 292.79 421.97C295 420.8 296 419.48 295.79 418.03C295.58 416.58 294.23 415.03 291.73 413.4C289.52 411.888 286.991 410.906 284.34 410.53C281.928 410.22 279.48 410.674 277.34 411.83C275.24 412.94 274.34 414.24 274.55 415.74C274.76 417.24 276.08 418.8 278.52 420.4Z" fill="#25D366"/>
<path d="M324.08 373.21V373.94C324.114 374.58 324.298 375.204 324.617 375.76C324.937 376.316 325.383 376.789 325.92 377.14L365.5 400C366.072 400.291 366.704 400.442 367.345 400.442C367.986 400.442 368.618 400.291 369.19 400L434.73 362.16C435.267 361.809 435.713 361.336 436.033 360.78C436.352 360.224 436.536 359.6 436.57 358.96V358.23C436.536 357.59 436.352 356.966 436.033 356.41C435.713 355.854 435.267 355.381 434.73 355.03L395.15 332.18C394.578 331.889 393.946 331.738 393.305 331.738C392.664 331.738 392.032 331.889 391.46 332.18L325.92 370C325.382 370.352 324.935 370.827 324.615 371.384C324.295 371.942 324.112 372.568 324.08 373.21Z" fill="#25D366"/>
<path d="M324.08 373.21V373.94C324.114 374.58 324.298 375.204 324.617 375.76C324.937 376.316 325.383 376.789 325.92 377.14L365.5 400C366.072 400.291 366.704 400.442 367.345 400.442C367.986 400.442 368.618 400.291 369.19 400L434.73 362.16C435.267 361.809 435.713 361.336 436.033 360.78C436.352 360.224 436.536 359.6 436.57 358.96V358.23C436.536 357.59 436.352 356.966 436.033 356.41C435.713 355.854 435.267 355.381 434.73 355.03L395.15 332.18C394.578 331.889 393.946 331.738 393.305 331.738C392.664 331.738 392.032 331.889 391.46 332.18L325.92 370C325.382 370.352 324.935 370.827 324.615 371.384C324.295 371.942 324.112 372.568 324.08 373.21Z" fill="#25D366"/>
<path opacity="0.2" d="M367.34 346.09L325.92 370C325.383 370.351 324.937 370.824 324.617 371.38C324.298 371.936 324.114 372.56 324.08 373.2V373.93C324.114 374.57 324.298 375.194 324.617 375.75C324.937 376.306 325.383 376.779 325.92 377.13L365.5 400C366.067 400.299 366.699 400.45 367.34 400.44V346.09Z" fill="black"/>
<path opacity="0.15" d="M367.34 346.09L325.92 370C325.383 370.351 324.937 370.824 324.617 371.38C324.298 371.936 324.114 372.56 324.08 373.2V373.93C324.114 374.57 324.298 375.194 324.617 375.75C324.937 376.306 325.383 376.779 325.92 377.13L365.5 400C366.067 400.299 366.699 400.45 367.34 400.44V346.09Z" fill="black"/>
<path opacity="0.2" d="M434.73 355L395.15 332.15C394.578 331.859 393.946 331.708 393.305 331.708C392.664 331.708 392.032 331.859 391.46 332.15L367.34 346.07V400.41C367.984 400.421 368.62 400.27 369.19 399.97L434.73 362.13C435.267 361.779 435.713 361.306 436.033 360.75C436.352 360.194 436.536 359.57 436.57 358.93V358.2C436.536 357.56 436.352 356.936 436.033 356.38C435.713 355.824 435.267 355.351 434.73 355Z" fill="black"/>
<path d="M359.16 391.33L325.92 372.14C325.695 372.067 325.499 371.924 325.36 371.733C325.221 371.542 325.147 371.311 325.147 371.075C325.147 370.839 325.221 370.608 325.36 370.417C325.499 370.226 325.695 370.083 325.92 370.01L391.46 332.17C392.032 331.879 392.664 331.728 393.305 331.728C393.946 331.728 394.578 331.879 395.15 332.17L434.73 355C434.955 355.073 435.151 355.216 435.29 355.407C435.428 355.598 435.503 355.829 435.503 356.065C435.503 356.301 435.428 356.532 435.29 356.723C435.151 356.914 434.955 357.057 434.73 357.13L423.85 363.41L420.05 365.61L369.19 395C368.618 395.291 367.986 395.442 367.345 395.442C366.704 395.442 366.072 395.291 365.5 395L362.27 393.14L359.16 391.33Z" fill="#25D366"/>
<path opacity="0.15" d="M389.34 359.45L434.73 355L389.73 357.55L395.14 332.15C394.524 331.829 393.833 331.684 393.14 331.73L384.65 366.06L325.17 371C325.168 371.244 325.238 371.484 325.371 371.688C325.505 371.893 325.696 372.053 325.92 372.15L373.92 369.36L367.3 395.44L375.76 369.26L383.96 368.78C384.965 368.718 385.919 368.32 386.67 367.65C387.371 367.024 387.855 366.19 388.05 365.27L389.34 359.45Z" fill="black"/>
<path opacity="0.3" d="M339.36 369.81L384.65 366.08L386.27 359.59L387.17 355.98L393.17 331.75C392.584 331.754 392.008 331.898 391.49 332.17L358.72 351.09L325.92 370C325.723 370.093 325.552 370.233 325.421 370.407C325.291 370.581 325.204 370.785 325.17 371L334.26 370.25L339.36 369.81Z" fill="white"/>
</svg>
